<?xml version="1.0" encoding="utf-8"?>
<!-- Generator: Adobe Illustrator 19.0.0, SVG Export Plug-In . SVG Version: 6.00 Build 0)  -->
<svg version="1.2" baseProfile="tiny" id="Layer_1" xmlns="http://www.w3.org/2000/svg" xmlns:xlink="http://www.w3.org/1999/xlink"
	 x="0px" y="0px" viewBox="-172 267.1 265.5 258.9" xml:space="preserve">
<path fill="#930012" d="M78.7,334.3h-236c3.1-5.9,6.6-11.5,10.4-16.9h51.9v-17.2h-37.3c6.3-6.2,13.2-11.8,20.7-16.9h16.6v-9.6
	c5.5-2.6,11.2-4.9,16.9-6.8v16.3h77.6v-16.3c5.7,1.9,11.3,4.1,16.9,6.8v9.6H33c7.5,5.1,14.4,10.7,20.7,16.9H16.4v17.2h51.9
	C72.2,322.8,75.6,328.4,78.7,334.3z M93.5,393.8c0,4.8-0.3,9.7-0.8,14.6H16.4v18.7H89c-1.5,5.6-3.5,11.3-5.9,16.9H16.4v18.7h57.4
	c-10.9,17.5-25,31.9-42.5,43C13.4,517.2-5.9,523.9-26.6,526v-63.3h26.2V444h-77.6v18.7h26.2V526c-20.7-2.1-40-8.8-57.9-20.3
	c-17.4-11.2-31.6-25.5-42.5-43h57.4V444h-66.7c-2.4-5.6-4.4-11.3-5.9-16.9h72.6v-18.7h-76.2c-0.6-5-0.8-9.8-0.8-14.6
	c0-13.8,2.1-27.1,6.3-40.1h113.8v54.7h-26.2v18.7h77.6v-18.7h-26.2v-54.7H87.2C91.4,366.7,93.5,380,93.5,393.8z M76.6,391.6
	c-0.1-7-0.9-14-2.4-21h-84v21H76.6z M-0.4,317.5v-17.2h-77.6v17.2H-0.4z M38,479.6H-9.7v26.2C8.1,500.9,24,492.2,38,479.6z
	 M-68.8,391.6v-21h-84c-1.5,6.9-2.3,13.9-2.4,21H-68.8z M-68.8,505.8v-26.2h-47.7C-102.5,492.2-86.6,500.9-68.8,505.8z"/>
</svg>
