<?xml version="1.0" encoding="utf-8"?>
<!-- Generator: Adobe Illustrator 19.0.0, SVG Export Plug-In . SVG Version: 6.00 Build 0)  -->
<svg version="1.1" id="Layer_1" xmlns="http://www.w3.org/2000/svg" xmlns:xlink="http://www.w3.org/1999/xlink" x="0px" y="0px"
	 viewBox="0 0 487 103" style="enable-background:new 0 0 487 103;" xml:space="preserve">
<style type="text/css">
	.st0{fill:#FFF6DA;}
	.st1{fill:#375F67;stroke:#375F67;stroke-miterlimit:10;}
</style>
<path id="XMLID_73_" class="st0" d="M313.3,83.9c-1.5,0-3-0.1-4.5-0.3c-4.9-0.8-9.7-2.7-14.3-5.7l-0.3-0.2l0.3-0.2
	c3-1.5,6.1-3.4,9-5.6c0.3-0.2,0.6-0.4,0.8-0.6l0.1-0.1l0.1,0c1.9,0.6,4.1,0.9,6.5,0.9l0.5,0c3.2,0,6.3-0.6,9.3-1.7
	c0.9-0.3,1.7-0.7,2.5-1.1c0.3-0.2,0.6-0.3,0.9-0.5c2-1.1,3.7-2.5,5-4c0.9-1,1.6-2.1,2.1-3.3c0.1-0.3,0.2-0.5,0.3-0.8
	c0.7-1.7,1.1-3.5,1.2-5.4c0.2-2.8-0.3-5.8-1.3-9.2l-0.1-0.2l0.2-0.1c2.7-1.3,5.5-2.2,8.3-2.7c0.3-0.1,0.6-0.1,0.9-0.1l0.5-0.1l0,0.2
	c0.1,0.4,0.1,0.8,0.2,1.2c0.2,1.3,0.3,2.7,0.3,4.1c0,2.6-0.2,5.4-0.8,8.2c-0.3,1.6-0.8,3.3-1.3,5.1l-0.1,0.3
	c-0.1,0.2-0.1,0.4-0.2,0.7c-1.1,3.3-2.6,6.3-4.3,9.2c-0.2,0.3-0.4,0.7-0.7,1l-0.1,0.2c-0.1,0.2-0.3,0.4-0.4,0.6
	c-1.2,1.7-2.5,3.1-3.9,4.3c-1.8,1.6-4,2.9-6.4,3.9C320.5,83.2,317,83.9,313.3,83.9L313.3,83.9z M413.1,83c-1.2,0-2.5-0.1-3.7-0.2
	c-5.4-0.6-10.7-2.3-16.3-5.4l-0.3-0.2l0.3-0.2c2.8-1.7,5.4-3.6,8.3-5.7l0.1-0.1l0.1,0c0.9,0.4,1.9,0.7,3.1,1
	c1.7,0.4,3.4,0.7,5.1,0.8c0.5,0,1,0,1.5,0c2.9,0,5.9-0.5,8.6-1.4c2.8-0.9,5.4-2.3,7.6-4c0.3-0.2,0.6-0.5,0.9-0.7
	c2.7-2.4,4.5-5.1,5.2-8.1c0.1-0.3,0.1-0.7,0.2-1.1l0.1-0.4c0.5-4.2-0.9-8.4-2.2-11.6l-0.1-0.1l0.1-0.1c3-2,5.8-3.4,8.7-4.2l0.2-0.1
	l0.1,0.2c2.1,6.2,2.9,11.7,2.3,16.8c-0.1,0.5-0.2,1-0.2,1.5c-0.1,0.4-0.2,0.8-0.3,1.2c-0.8,3.3-2.2,6.5-4.2,9.3
	c-0.2,0.2-0.4,0.5-0.5,0.7c0,0-0.6,0.8-0.7,0.9c-3.1,3.8-7.2,6.7-11.8,8.6C421.4,82.3,417.4,83,413.1,83L413.1,83z M375.4,82.4
	c-4.5,0-9.5-1.3-14.2-3.7c-3.5-1.8-6.6-4-9.3-6.8l-0.2-0.2l0.3-0.1c1.8-0.7,3.5-1.5,5.3-2.3c1.4-0.7,2.8-1.5,4.1-2.2l0.1-0.1
	l0.1,0.1c1.8,1.5,3.7,2.7,5.7,3.6c2.2,1,4.5,1.4,6.9,1.4c1.4,0,2.8-0.2,4.2-0.5c0.6-0.1,1.2-0.3,1.9-0.5c0.4-0.1,0.9-0.3,1.3-0.4
	c3-1.1,5.8-2.6,7.9-3.9c0.2-0.1,0.3-0.2,0.5-0.3c0,0,1.1-0.7,1.4-0.8c2.8-1.7,5.6-3.6,8.5-5.8c1.8-1.3,3.7-2.8,5.5-4.3l0.8-0.6
	c1-0.8,2-1.6,2.9-2.4l0.1-0.1l1.2,1.2c1.9,1.9,4,3.8,6,5.7l0.2,0.2l-4.2,3.1c-2.4,1.7-4.8,3.5-7.2,5.2l-1.3,1
	c-0.8,0.6-1.6,1.2-2.4,1.8c-0.2,0.2-0.4,0.3-0.7,0.5l-0.2,0.2c-2.4,1.8-5.3,3.9-8.3,5.7c-0.1,0.1-0.5,0.3-0.6,0.4l-0.5,0.3
	c-5,2.9-9.7,4.5-14.1,4.8C376.5,82.4,375.9,82.4,375.4,82.4z M75.1,82.3c-2,0-4-0.3-5.8-0.8c-2.4-0.7-5-1.7-7.9-3.3
	c-4.5-2.4-8.4-5.4-11.5-8.8l-0.2-0.2l0.3-0.1c2.9-1,5.7-2.4,8.8-4.3l0.1-0.1l0.1,0.1c1.7,1.7,3.7,3.1,5.9,4c2.3,1,4.9,1.5,7.7,1.5
	c1.4,0,2.8-0.1,4.2-0.4c0.9-0.2,1.8-0.4,2.9-0.7c0.3-0.1,0.6-0.2,0.9-0.3L81,69c2.4-0.8,4.9-1.8,7.5-3.1c0.8-0.4,1.6-0.8,2.4-1.3
	c0.4-0.2,0.8-0.5,1.2-0.7c2.2-1.3,4.5-2.8,6.6-4.4c1.8-1.3,3.6-2.8,5.4-4.3c0.9-0.8,1.8-1.5,2.6-2.3c0.1-0.1,0.8-0.7,0.8-0.7
	l0.8,0.8c2.2,2,4.4,4.1,6.5,6.1l0.2,0.1l-1.1,1.1c-0.5,0.5-0.9,0.9-1.4,1.4c-2.1,2-4,3.8-5.9,5.4c-0.7,0.6-1.4,1.2-2.1,1.8l-0.8,0.7
	c-3.5,2.8-6.7,5.1-9.9,6.9c0,0-0.4,0.2-0.5,0.3c-0.3,0.2-0.7,0.4-1,0.6c-4.9,2.6-9.7,4.3-14.2,4.8C77.1,82.3,76.1,82.3,75.1,82.3z
	 M274,82c-5.2,0-10.1-1.1-14.5-3.2c-3.9-1.9-7.4-4.7-10-8l-0.2-0.2l0.3-0.1c2.2-0.8,4.4-1.9,6-2.8c1.3-0.7,2.6-1.5,4.1-2.4l0.1-0.1
	l0.1,0.1c3.7,4.5,8.8,7,13.9,7c0.4,0,0.9,0,1.3-0.1c1.7-0.1,3.3-0.5,5-1.2c0.4-0.2,0.9-0.3,1.3-0.5c3.4-1.5,6.5-3.8,8.8-5.7l1.1-0.9
	c0.6-0.5,1.2-1,1.8-1.5c0.9-0.8,1.9-1.6,2.8-2.3c2-1.6,3.9-3,5.7-4.4c0.6-0.5,1.3-1,1.9-1.4l1-0.8c0.2-0.1,0.3-0.2,0.5-0.4l0.4-0.3
	l0.1,0.1c2.7,2.6,5.6,5.3,8.7,8.1l0.2,0.1l-0.7,0.7c-0.8,0.8-1.6,1.7-2.5,2.5c-2.1,2-4.2,3.8-6.3,5.5c-0.2,0.1-0.3,0.2-0.5,0.4
	l-1.1,0.8c-3.2,2.4-6.5,4.4-9.7,6c0,0-0.8,0.4-1,0.5c-0.7,0.3-1.3,0.6-2,0.9C285.2,80.8,279.4,82,274,82z M172,81.5
	c-3.7,0-7.5-0.8-11-2.2c-4.4-1.8-8.2-4.7-10.9-8.2l-0.2-0.2l0.3-0.1c3.2-1.2,6.4-2.7,9.6-4.6l0.1-0.1l0.1,0.1
	c2.6,2.7,6.7,4.2,11.5,4.2c1.8,0,3.7-0.2,5.5-0.7c1.4-0.3,2.8-0.8,4.3-1.4c0.5-0.2,0.9-0.4,1.4-0.6c1.6-0.7,3.2-1.5,4.9-2.5
	c1.1-0.6,2.3-1.3,3.6-2.2l0.9-0.6c1.7-1.1,3.4-2.2,5-3.5c3.4-2.5,6.7-5.4,9.9-8.5l0.1-0.2l0.2,0c3,2.5,6.1,5,8.4,6.9l0.2,0.2
	l-0.2,0.2c-0.3,0.3-0.6,0.5-0.9,0.8c-1.1,0.9-2.2,1.9-3.4,2.8c-2.1,1.7-4.3,3.4-6.7,5.2c-0.3,0.2-2.8,2.1-2.8,2.1
	c-3.3,2.4-6.2,4.3-8.9,6c-0.3,0.2-0.7,0.4-1.1,0.6c-0.2,0.1-0.4,0.2-0.6,0.4c-0.2,0.2-0.5,0.3-0.8,0.4c-5.6,3.2-10.9,4.9-15.9,5.4
	C173.7,81.5,172.9,81.5,172,81.5z M110,80.8c-3,0-6.2-0.5-9.3-1.3c-2.2-0.6-4.4-1.4-6.2-2.1l-0.4-0.2l0.4-0.2
	c3.3-1.9,6.7-4.3,10.3-7.3l0.1-0.1l0.1,0c1.5,0.4,3.2,0.7,5.1,0.7c0.9,0,1.8-0.1,2.8-0.2c3.2-0.4,6.2-1.4,8.9-2.9
	c0.4-0.2,0.7-0.4,1.1-0.7c0.3-0.2,0.5-0.4,0.8-0.6c2.6-2,4.8-4.6,6.2-7.7c0.2-0.4,0.3-0.7,0.4-1.1c0.6-1.5,1-3.1,1.2-4.7
	c0.3-2.3,0.2-4.6-0.3-6.8l0-0.1l0.1-0.1c0.5-0.3,1-0.6,1.4-0.8c2.8-1.5,5.6-2.4,8.5-2.7l0.2,0l0,0.2c1.4,6.1,0.9,12.7-1.4,18.6
	c-0.2,0.4-0.3,0.8-0.5,1.1c-1,2.3-2.2,4.3-3.6,6.2c-0.9,1.2-1.9,2.3-3,3.4c-0.3,0.3-0.6,0.6-0.9,0.9c-5.9,5.4-13.8,8.5-21.6,8.5
	C110.3,80.8,110,80.8,110,80.8z M210.8,79.6c-1.6,0-3.3-0.1-4.9-0.4c-4.1-0.6-8.1-2-12.1-4.1l-0.3-0.2l0.3-0.2
	c3.2-2,6.2-4.2,8.8-6.1l0.1-0.1l0.1,0c0.9,0.4,2,0.7,3.4,1c1.1,0.2,2.2,0.3,3.4,0.3c0.7,0,1.5,0,2.3-0.1c3.5-0.3,7-1.3,10-2.9
	c1.1-0.6,2.1-1.2,3.1-1.9c0.3-0.2,0.6-0.5,0.9-0.7c1.5-1.2,2.7-2.5,3.7-3.9c0.4-0.6,0.8-1.2,1.2-1.9c0.2-0.3,0.4-0.7,0.5-1
	c0.9-2,1.5-4.1,1.6-6.2c0.2-2.4-0.2-4.7-0.9-6.7l-0.1-0.2l0.2-0.1c2.4-0.9,4.8-1.5,7.2-1.8c0.5,0,1-0.1,1.5-0.1l0.2,0l0,0.2
	c0.3,1.6,0.4,3.1,0.4,4.5c0,2.6-0.5,5.4-1.4,8.2c-0.5,1.5-1.1,3.1-1.9,4.8l-0.4,0.9c-0.3,0.6-0.6,1.3-0.9,1.9
	c-1.1,2.2-2.4,4.3-3.7,6c-0.1,0.1-0.5,0.7-0.5,0.7l-0.1,0.1C227.6,75.9,219.7,79.6,210.8,79.6C210.8,79.6,210.8,79.6,210.8,79.6z
	 M339.7,73.4c-1.5,0-2.9-0.1-4.4-0.4l-0.3-0.1l0.2-0.3c2-3.1,3.7-6.5,4.9-10.3l0-0.1l0.1,0c1.7,0,3.4-0.2,5-0.5
	c0.4-0.1,0.7-0.1,1-0.2c2.8-0.6,5.5-1.5,8-2.8c0.3-0.2,0.6-0.3,0.9-0.5c1.3-0.7,2.6-1.6,3.8-2.5c0.8-0.6,1.6-1.3,2.4-2
	c0.4-0.3,0.7-0.7,1-1l0.1-0.1l0.1,0.1c2.4,2,4.8,4.3,7.2,6.8l0.1,0.1l-0.1,0.1c-0.4,0.4-0.8,0.8-1.2,1.2c-1,0.9-2.1,1.7-3.3,2.7
	c-1.2,0.8-2.4,1.6-3.8,2.5c-0.2,0.1-0.4,0.2-0.6,0.4l-0.2,0.1c-0.8,0.5-1.7,1-2.6,1.4c-2.3,1.2-4.7,2.2-6.9,3.1l-0.9,0.3
	c-3.3,1.1-6.3,1.7-9.2,1.9C340.7,73.4,340.2,73.4,339.7,73.4z M449.5,73.1c-3.2,0-6.8-0.7-10.5-2.2l-0.2-0.1l0.1-0.2
	c2-2.9,3.4-6,4.1-9.3l0-0.2l0.2,0c1.2,0.3,2.4,0.4,3.5,0.4c2.2,0,4.1-0.5,5.8-1.4c1.9-1.1,3.3-2.9,3.8-5c0.5-2,0.5-4.3,0-6.6
	c-0.9-3.5-3.5-7.6-8-8.4c-0.7-0.1-1.4-0.2-2.1-0.2c-1.5,0-3.1,0.2-5.1,0.7c-0.1,0-0.2,0-0.2,0.1c-0.2,0-0.4,0.1-0.5,0.1l-0.2,0.1
	c-2,0.6-4,1.4-5.8,2.4c-0.9,0.5-1.8,1-2.9,1.7c-0.3,0.2-0.6,0.4-0.9,0.6c-1.8,1.2-3.7,2.7-5.6,4.4l-0.1,0.1l-0.2-0.2
	c-0.6-0.6-1.1-1.2-1.7-1.9c-1.4-1.5-3-3.1-4.8-4.8l-0.2-0.1l0.1-0.1c2-2,4.1-3.8,6.3-5.4l0.9-0.6c2.1-1.4,4.3-2.7,6.5-3.7
	c0.6-0.3,1.2-0.5,1.9-0.8l0.2-0.1c0.3-0.1,0.6-0.2,0.9-0.3c2.4-0.9,4.8-1.5,7.1-1.8c1.5-0.2,2.9-0.3,4.2-0.3c2.8,0,5.3,0.5,7.5,1.4
	c6,2.6,10.2,9.2,11.1,17.6c0.5,4.1,0.4,8.1-0.2,11.7c-0.7,4.1-2.4,7.2-5.1,9.2C456.6,72,453.3,73.1,449.5,73.1L449.5,73.1z
	 M139.1,72.4c-1.9,0-3.7-0.2-5.4-0.7l-0.3-0.1l0.2-0.2c2.7-2.9,4.9-6.1,6.4-9.7l0.1-0.1l0.4,0c1.3,0,2.7-0.2,4.3-0.6
	c0.3-0.1,0.6-0.2,0.9-0.3c1-0.3,1.9-0.6,2.8-1c1.8-0.7,3.5-1.6,5.2-2.6c0.3-0.2,0.5-0.3,0.8-0.5c1.5-1,3-2,4.2-3.2
	c0.8-0.7,1.6-1.5,2.3-2.3c0.2-0.2,0.3-0.4,0.5-0.6l0.1-0.1l0.1,0.1c3.2,2.2,6.1,4.3,8.8,6.6l0.2,0.1l-0.4,0.4
	c-0.3,0.3-0.6,0.6-1,0.9c-1.1,0.9-2.2,1.9-3.4,2.8c-1.9,1.4-3.8,2.7-5.9,3.9c-0.2,0.1-0.3,0.2-0.5,0.3c0,0-1.1,0.6-1.3,0.7
	c-3.1,1.7-5.9,3-8.6,3.9c-0.3,0.1-0.7,0.2-1,0.3l-0.3,0.1c-2.9,0.9-5.5,1.4-8,1.5C139.9,72.4,139.5,72.4,139.1,72.4z M242.8,71.1
	c-0.6,0-1.3,0-1.9-0.1c-2-0.2-4.1-0.7-6.8-1.6l-0.3-0.1L234,69c1-1.3,1.9-2.7,2.7-4.2c0.7-1.2,1.3-2.5,1.9-3.8l0.1-0.1l0.1,0
	c0.4,0.1,0.8,0.1,1.2,0.1c1.1,0,2.2-0.2,3.4-0.5l0.8-0.2c1.1-0.3,2.1-0.8,3-1.1c1.9-0.8,3.7-1.7,5.7-2.9l0.4-0.2
	c0.2-0.1,0.5-0.3,0.7-0.4c0.7-0.5,1.5-1,2.2-1.5c1.1-0.8,2.1-1.6,3.3-2.6l0.1-0.1l0.1,0.1c1.5,1.3,3,2.7,4.7,4.5c1,1,1.9,2,2.8,3
	l0.2,0.2l-1.3,1c-0.9,0.7-1.8,1.3-2.7,1.9c-1,0.7-2.1,1.4-3.5,2.3l-0.8,0.5c-0.9,0.6-1.8,1.1-2.7,1.6c-2.2,1.3-4.7,2.6-7.2,3.5
	l-0.1,0l-0.2-0.2l0,0.2c-0.3,0.1-0.5,0.2-0.8,0.3C246.3,70.8,244.6,71.1,242.8,71.1z M280.4,70.2c-2.8-2.2-5.7-4.8-8.7-7.8
	c-0.6-0.6-1.2-1.2-1.7-1.8l-2-2.1c-2.8-2.9-5.1-5.2-7.7-7.4l-0.3-0.2c-0.2-0.1-0.3-0.3-0.5-0.4l-0.6-0.5c-2-1.6-3.9-3-6-4.2
	l-0.1-0.1l0-0.1c0.4-2.4,1.4-4.8,2.6-6.9c0.6-1,1.3-2,2.2-2.9l0.1-0.1l0.1,0.1c3,1.8,6,3.9,8.9,6.4c0.3,0.2,0.6,0.5,0.8,0.7
	c1.1,0.9,2.1,1.9,3.1,2.9c1.7,1.7,3.4,3.5,4.9,5.2c0.2,0.2,0.3,0.4,0.5,0.5l1.2,1.3c2.7,3,5.4,6.1,8.5,8.8c1.2,1.1,2.4,2.1,3.6,2.9
	l0.2,0.2l-0.6,0.5c-0.5,0.4-0.9,0.7-1.4,1.1c-2.5,1.9-4.9,3.3-7.1,4.3L280.4,70.2L280.4,70.2z M380.8,70.1c-0.1-0.1-0.1-0.2-0.2-0.2
	c-0.9-1.1-1.9-2.1-2.8-3.2c-2-2.3-3.9-4.3-5.9-6.3c-0.1-0.1-0.3-0.3-0.4-0.4c-0.1-0.1-1-1-1-1c-2.6-2.6-5-4.8-7.4-6.8l-0.3-0.2
	c-0.1-0.1-0.2-0.2-0.4-0.3c-1.3-1-2.4-1.9-3.4-2.6c-1.5-1.1-3.1-2.2-4.7-3.2l-0.1-0.1l0-0.1c0.5-2.4,1.4-4.6,2.7-6.5
	c0.5-0.7,1-1.4,1.5-2l0.1-0.1l0.1,0.1c3.4,1.9,6.8,4.3,10.1,7c0.3,0.2,0.5,0.4,0.8,0.6c0.8,0.6,1.4,1.2,2.1,1.8
	c1.5,1.3,3.1,2.8,5,4.7c0.2,0.2,0.4,0.4,0.7,0.7c2.6,2.6,5.2,5.4,8,8.5c1.2,1.4,2.4,2.7,3.6,4.1c0.3,0.4,0.6,0.8,0.9,1.1l0.1,0.2
	l-0.2,0.1c-2.4,1.4-5.5,3.2-8.8,4.3L380.8,70.1L380.8,70.1z M39.2,70.2c-3.5,0-6.8-0.7-9.7-2.1c-3-1.4-5.5-3.5-7.2-6
	c-1.9-2.7-3-6.2-3.2-10.2c-0.2-3.5,0.4-6.9,1.8-10c1.3-3,3.5-5.6,6.3-7.6c4.1-2.9,9.1-4.4,14.7-4.4c1.9,0,3.9,0.2,5.8,0.6l0.7,0.2
	l-0.2,0.3c-2.3,2.7-4,5.8-5.3,9.3l-0.1,0.1l-0.1,0c-0.4,0-0.8,0-1.1,0c-2.8,0-5.4,0.8-7.6,2.2c-3.2,2.1-5.3,5.7-5.3,9.2
	c0,2.1,0.6,3.9,1.7,5.2c1.5,1.7,3.8,2.3,5.4,2.5c0.8,0.1,1.7,0.2,2.5,0.2c1,0,2.1-0.1,3.2-0.3c0.4-0.1,0.8-0.1,1.1-0.2
	c1.9-0.4,3.8-1.1,6.3-2.2c1.2-0.5,2.4-1.1,3.5-1.7c0.2-0.1,0.4-0.2,0.6-0.3l0.3-0.2l0.6-0.3c0.5-0.3,1-0.6,1.5-0.8
	c1.7-1,3-1.9,4.1-2.7l0.1-0.1l0.1,0.1c2.5,2.3,5,4.7,7.3,7l0.2,0.2L67,58.1c-0.6,0.4-1.2,0.9-1.7,1.3c-1.3,0.9-3,2.2-4.8,3.3
	c-0.5,0.3-1,0.6-1.4,0.9l-0.3,0.2c-0.2,0.2-0.5,0.3-0.7,0.5c-2.6,1.6-5.2,2.8-7.7,3.8c-0.4,0.1-0.8,0.3-1.2,0.4l-0.2,0.1
	c-0.3,0.1-0.6,0.2-1,0.3C45,69.8,42,70.2,39.2,70.2C39.2,70.2,39.2,70.2,39.2,70.2z M79.9,68.5c-1-0.8-2-1.6-3-2.4
	c-2.2-1.9-4.3-3.9-6.2-5.8c-0.7-0.7-1.3-1.3-2-2l-0.4-0.4c-0.2-0.2-0.4-0.4-0.5-0.5c-2.7-2.7-4.9-4.9-7.3-7.1
	c-0.2-0.2-0.4-0.4-0.7-0.6l-0.4-0.4c-0.3-0.3-0.7-0.6-1-0.9c-1.8-1.5-3.6-2.9-5.4-4.1l-0.1-0.1l0-0.1c0.6-2.9,1.9-5.7,3.8-8.1
	c0.4-0.5,0.7-0.9,1.2-1.4l0.1-0.1l0.1,0.1c2.8,2.1,5.6,4.5,8.9,7.6l0.8,0.7c1.2,1.2,2.4,2.3,3.6,3.5c1.3,1.3,2.6,2.7,3.9,4l0.9,0.9
	c3,3.1,6.3,6.3,9.8,9.2c1.3,1.1,2.7,2.2,4.2,3.3l0.3,0.2L90,64.3c-3.6,2-6.9,3.4-9.9,4.3L79.9,68.5L79.9,68.5z M322.4,67.6
	c-1.2-1.1-2.3-2.1-3.5-3.2c-0.8-0.8-1.7-1.5-2.5-2.3l-0.8-0.8c-0.3-0.2-0.5-0.5-0.8-0.7l-2.9-2.7c-1.9-1.7-3.7-3.5-5.6-5.3
	c-0.3-0.3-0.6-0.5-0.8-0.8c-2.4-2.3-5-4.8-7.5-7.4c-1.9-1.9-3.8-3.8-5.6-5.7l-0.2-0.2l0.6-0.5c0.4-0.3,0.7-0.5,1.1-0.8
	c2.8-1.9,5.3-3.4,7.7-4.5l0.1-0.1l0.1,0.1c3.2,2.8,6.7,5.9,10.8,10l9.2,9c0.2,0.2,0.4,0.4,0.7,0.6l1.2,1.2c0.8,0.8,1.6,1.5,2.3,2.3
	c1.6,1.6,3.2,3.1,4.9,4.7l0.1,0.1l-0.1,0.1c-0.4,0.9-0.9,1.7-1.5,2.5c-1.4,1.9-3.4,3.6-5.9,5l-0.1,0.1L322.4,67.6z M181.9,67.3
	c-0.8-1-1.6-2.1-2.5-3.1c-1.8-2-3.7-3.9-5.9-5.8c-0.2-0.2-0.5-0.4-0.7-0.6c-0.2-0.2-0.5-0.4-0.7-0.6l-0.2-0.2
	c-0.1-0.1-0.3-0.2-0.4-0.4c-2.8-2.3-5.7-4.4-9-6.6l-0.9-0.5l-0.5-0.3c-0.4-0.3-0.8-0.5-1.2-0.8c-1.4-0.9-2.9-1.8-4.9-2.9l-0.1-0.1
	l0-0.1c0.8-2.6,1.9-5,3.5-7.2c0.6-0.8,1.2-1.5,1.8-2.2l0.1-0.1l0.1,0.1c3.2,2.1,6.1,4.2,8.8,6.3l0.6,0.5c2.7,2.1,5.4,4.4,8,6.7
	l0.8,0.7c2.7,2.5,5.3,5,7.7,7.6c1.1,1.1,2.1,2.3,3.1,3.5l1.4,1.5l-0.2,0.1c-0.5,0.3-1,0.7-1.6,1c-2.7,1.6-4.9,2.7-6.9,3.6l-0.1,0.1
	L181.9,67.3z M427.4,66.8c-0.5-0.3-1-0.6-1.4-0.9c-1.4-0.9-2.8-1.9-4.1-2.9c-1.3-1-2.6-2.1-4.2-3.5c-0.3-0.2-0.5-0.5-0.8-0.7
	c-0.9-0.8-1.8-1.6-2.6-2.4c-1.2-1.1-2.3-2.2-3.5-3.3l-1.1-1.1c-0.2-0.2-0.4-0.4-0.6-0.6c-3.5-3.4-6.5-6.1-9.8-8.6
	c-1.9-1.4-3.9-2.6-5.9-3.7l-0.3-0.2l0.3-0.2c0.1,0,0.1-0.1,0.2-0.1c3.7-2.5,7.1-4.2,10.4-5.3l0.1,0l0.1,0c4.2,2.4,8.1,5.2,11.7,8.3
	c0.2,0.2,0.4,0.4,0.6,0.6c0.2,0.1,0.3,0.3,0.5,0.4c0.3,0.3,0.5,0.5,0.8,0.7c1.8,1.7,3.3,3.2,4.6,4.6l2.7,3c0.9,1,2,2.2,3.1,3.3
	c1.8,1.8,3.2,3,4.7,3.9l0.1,0.1l0,0.1c-0.6,2.6-1.9,5-3.9,7c-0.4,0.4-0.9,0.8-1.4,1.3l-0.1,0.1L427.4,66.8z M122.7,65.6
	c-1.1-1-2.1-2.1-3.2-3.1c-0.7-0.6-1.3-1.3-2-1.9l-1.4-1.3l-0.7-0.7c-1-0.9-1.9-1.9-2.9-2.8c-1.4-1.3-2.7-2.5-4.1-3.8l-1-0.9
	c-2.7-2.5-5.9-5.5-9.1-8.4c-1.2-1.1-2.4-2.2-3.6-3.2l-1.4-1.3l0.6-0.4c0.4-0.3,0.8-0.6,1.2-0.9c2.8-1.9,5.5-3.4,8-4.5l0.1,0l0.1,0.1
	c3.7,3.4,7.4,6.9,11.4,10.8l0.7,0.6c2.1,2,4.4,4.2,7.1,7c0.2,0.2,0.4,0.4,0.7,0.7c0.4,0.4,1.9,1.9,2.3,2.3l1.4,1.4
	c0.8,0.8,1.5,1.6,2.3,2.3l0.1,0.1l-0.1,0.1c-0.3,0.7-0.7,1.4-1,2.1c-1.3,2.2-3.1,4.2-5.3,5.8l-0.1,0.1L122.7,65.6z M225.2,64
	c-0.9-0.7-1.8-1.4-2.7-2.1l-0.6-0.4c-1.3-1-2.5-2-3.8-3l-1.8-1.5c-0.4-0.3-0.8-0.6-1.2-0.9c-0.4-0.3-0.8-0.6-1.2-0.9
	c-5.7-4.6-10.8-8.9-15.8-13.2c-2.2-1.9-4.5-3.9-6.7-5.9l-0.2-0.2l0.2-0.1c0.7-0.5,1.4-1,2.2-1.5c2.3-1.5,4.8-2.6,7.2-3.4l0.1,0
	l0.1,0.1c4.1,4.1,7.9,7.7,11.7,11.3c0.2,0.2,0.4,0.4,0.6,0.5l0.3,0.3c2.6,2.4,5.3,4.9,8.1,7.4c0.2,0.2,0.5,0.4,0.7,0.6l1.2,1.1
	c0.8,0.7,1.6,1.4,2.4,2.1c1.4,1.3,2.9,2.5,4.4,3.7l0.1,0.1l-0.1,0.1c-0.2,0.4-0.5,0.8-0.7,1.2c-1.2,1.7-2.7,3.3-4.4,4.7l-0.1,0.1
	L225.2,64z M345.8,61c-0.2-0.5-0.4-0.9-0.6-1.4c-0.6-1.4-1-2.7-1.3-3.9c-0.8-2.9-1.1-5.7-0.9-8.3c0.1-1.5,0.3-3,0.7-4.6l0.2-0.8
	c0.3-1.1,0.6-2.1,0.9-2.9c0.8-2.1,1.7-4,2.7-5.8c0.2-0.3,0.4-0.6,0.6-0.9c0.1-0.1,0.1-0.2,0.1-0.2c0.1-0.1,0.1-0.2,0.2-0.3
	c2.8-4.1,7-7.4,11.9-9.3c3.6-1.4,7.6-2.1,11.9-2.1c1.4,0,2.9,0.1,4.4,0.2c3.2,0.3,6.3,1,9.3,1.9c2.6,0.8,4.6,1.8,6.2,3.1l0.2,0.2
	l-0.3,0.1c-2.8,1.5-5.7,3.5-8.9,6.2l-0.1,0.1l-0.1,0c-0.9-0.3-1.8-0.6-2.7-0.9c-1.9-0.5-3.7-0.9-5.5-1c-0.6,0-1.2-0.1-1.9-0.1
	c-3.1,0-5.9,0.6-8.5,1.7c-2.2,1-4.2,2.4-5.9,4.2c-0.2,0.2-0.5,0.5-0.7,0.8c-2,2.4-3.4,5.3-4.2,8.4l0,0.1c-0.1,0.3-0.1,0.6-0.2,0.8
	l-0.1,0.6c-0.6,3.6-0.2,7.4,0.9,11.1l0,0.2l-0.1,0.1c-2.6,1.3-5.4,2.3-8.2,2.9l-0.2,0L345.8,61z M145.1,59.9
	c-0.3-0.9-0.8-2.1-1.1-3.3c-0.7-2.6-1-5.1-1-7.6c0-2.4,0.2-4.7,0.7-7c0,0,0.1-0.5,0.1-0.7c0.6-2.5,1.5-4.9,2.6-7.1
	c0.7-1.4,1.6-2.7,2.6-4c0.2-0.3,0.4-0.6,0.7-0.9c2.3-2.7,5-4.8,8.1-6.1c2.2-1,4.8-1.7,7.9-2.2c3.3-0.5,6.2-0.8,9.1-0.8h0.2
	c6.6,0,12.1,1.5,16.5,4.4l0.3,0.2l-0.3,0.2c-2.7,1.5-5.5,3.4-8.8,5.8l-0.1,0.1l-0.1-0.1c-1.8-0.9-3.7-1.6-5.5-1.9
	c-1-0.2-1.9-0.3-2.9-0.3c-2.6,0-5.1,0.6-7.6,1.9c-2.2,1.1-4.2,2.6-6,4.4c-0.3,0.3-0.5,0.5-0.7,0.8c-2.5,2.7-4.3,5.9-5.3,9.3
	c-0.1,0.2-0.1,0.4-0.2,0.7c0,0.1-0.1,0.2-0.1,0.3l0,0.2c-0.8,3.3-0.9,6.8-0.3,10.1l0,0.1l-0.1,0.1c-2.7,1.6-5.5,2.9-8.4,3.7l-0.2,0
	L145.1,59.9z M243.9,59.4c-1.6-5.4-2-10.6-1.2-15.6c0.1-0.4,0.2-0.8,0.2-1.2l0.1-0.3c0.1-0.3,0.1-0.5,0.2-0.8
	c0.9-3.8,2.6-7.4,4.9-10.4l0.1-0.1c0.2-0.2,0.3-0.4,0.5-0.6c0.4-0.5,0.8-0.9,1.2-1.4c1.8-1.9,4.1-3.7,7.1-5.5c2.6-1.6,5.3-2.8,8-3.6
	c2.9-0.9,5.8-1.4,8.7-1.4c2.5,0,5,0.3,7.4,1c2.8,0.8,5.5,2,7.8,3.5c1.1,0.7,2.1,1.5,2.9,2.2l0.2,0.2l-0.3,0.1
	c-3.2,1.7-6.4,3.5-9.4,5.5l-0.1,0.1L282,31c-2.9-1.7-6.3-2.5-9.7-2.5c-3,0-6,0.7-8.6,2c-2.1,1.1-4.1,2.5-5.8,4.3
	c-0.2,0.2-0.4,0.5-0.7,0.7c-2.5,2.8-4.1,6.1-4.9,9.6c-0.1,0.4-0.1,0.7-0.2,1.1c-0.1,0.5-0.1,1-0.2,1.5c-0.1,2.2,0.1,4.5,0.9,7
	c0,0.1,0,0.2,0.1,0.2c0,0.1,0.1,0.2,0.1,0.3l0,0.1l-0.3,0.2c-0.1,0.1-0.2,0.1-0.3,0.2c-3.1,1.8-5.8,3-8.4,3.8l-0.2,0.1L243.9,59.4z
	 M42.2,58.3c-0.3-1.2-0.5-2.3-0.6-3.3c-0.3-2.6-0.3-5.3,0.1-8c0.3-1.9,0.7-3.8,1.3-5.7c0.1-0.4,0.3-0.7,0.4-1.1
	c1.1-2.9,2.5-5.5,4.3-7.9c0.4-0.5,0.7-0.9,1.1-1.4c0.3-0.4,0.6-0.7,0.9-1c6.4-6.9,15.9-11,25.5-11c6.5,0,12.4,1.7,17,4.9l0.3,0.2
	l-0.3,0.2c-2.4,1.3-5,2.9-7.7,4.9l-0.1,0.1l-0.1,0c-0.9-0.4-1.7-0.7-2.5-1c-1.8-0.6-3.6-0.9-5.4-1.1C76,27,75.5,27,75,27
	c-3.1,0-6.3,0.7-9.4,2c-2.8,1.1-5.3,2.8-7.4,4.8c-0.2,0.2-0.5,0.5-0.7,0.7c-2.5,2.6-4.2,5.8-5,9.1l0,0.1c-0.1,0.4-0.2,0.8-0.2,1.3
	c-0.5,3.3-0.1,6.7,0.3,9.3l0,0.1l-0.7,0.4c-0.3,0.2-0.6,0.3-1,0.5c-2.5,1.2-5.4,2.5-8.5,3.2l-0.2,0L42.2,58.3z M322.4,51.4
	c-0.6-0.6-1.2-1.2-1.8-1.7c-1.7-1.7-3.5-3.4-5.2-5.1l-0.2-0.1l0.2-0.1c3.2-2.9,6.9-5.3,10.9-7.2c0.4-0.2,0.7-0.3,1.1-0.5
	c3.4-1.4,6.9-2.4,10.6-3l0.1,0c0.4-0.1,0.9-0.1,1.3-0.2l1-0.1c1.5-0.2,3.1-0.2,4.8-0.2c0.4,0,0.9,0,1.3,0l0.3,0l-0.2,0.3
	c-0.6,1.1-1.2,2.3-1.7,3.5c-0.7,1.7-1.3,3.4-1.8,5.2l0,0.1l-0.1,0c-0.3,0-0.7,0-1,0.1c-0.3,0-0.7,0.1-1,0.1
	c-1.9,0.3-3.9,0.8-5.9,1.5c-1.1,0.4-2.3,0.9-3.6,1.5l-0.2,0.1c-0.2,0.1-0.4,0.2-0.6,0.3c-1.9,1-3.7,2.1-5.3,3.3
	c-0.9,0.7-1.8,1.5-2.7,2.3l-0.1,0.1L322.4,51.4z M377.3,50.7c-2.4-2.3-4.7-4.4-7-6.4l-0.2-0.2l0.2-0.2c0.8-0.6,1.7-1.3,2.7-2.1
	c1.7-1.5,3.5-3,5.1-4.5l0.5-0.5c1.7-1.5,3.1-2.8,4.5-3.9c0.4-0.3,0.6-0.5,0.9-0.8c2.3-1.9,4.3-3.3,6.3-4.6c0.8-0.5,1.5-0.9,2.4-1.4
	l0.2-0.1c0.3-0.2,0.6-0.3,0.9-0.4c4.7-2.2,10-3.4,15.2-3.4c4.1,0,8.2,0.7,12,2.2c4.4,1.7,8.4,4.2,11.9,7.4l0.2,0.2l-0.3,0.1
	c-2.9,1.2-5.7,2.7-8.3,4.5l-0.1,0.1l-0.1-0.1c-1.4-1.2-3-2.1-4.7-2.9c-2.8-1.3-5.8-1.9-8.9-1.9c-1,0-2,0.1-3,0.2
	c-1.3,0.2-2.7,0.5-4,0.9l-0.3,0.1c-0.2,0.1-0.5,0.1-0.7,0.2c-3.3,1.1-6.7,2.9-10.3,5.5l-0.4,0.3c-0.2,0.2-0.4,0.3-0.6,0.5
	c-2.3,1.7-4.5,3.5-6.6,5.2l-1.4,1.1c-1.9,1.6-3.9,3.3-5.9,4.9l-0.1,0.1L377.3,50.7z M276.4,50.4c-2.4-2.6-5.1-5.4-8-8l-0.2-0.2
	l0.2-0.1c0.8-0.7,1.5-1.3,2.3-1.9c2.2-1.8,4.5-3.5,6.9-5.2c1.3-0.9,2.7-1.9,4.5-3c0.3-0.2,0.7-0.4,1-0.6c3.2-2,6.3-3.8,9.3-5.3
	c0,0,0.1-0.1,0.2-0.1c0.2-0.1,0.4-0.2,0.5-0.3l0.3-0.1c4.7-2.3,10.2-4.8,16.3-5.1c0.5,0,1,0,1.5,0c5.1,0,10.4,1.3,15.4,3.6
	c4.3,2.1,8,5,10.8,8.5l0.2,0.3l-0.3,0.1c-3.5,0.6-7.1,1.7-10.5,3.3l-0.1,0.1l-0.1-0.1c-0.5-0.4-0.9-0.8-1.4-1.1
	c-1.6-1.3-3.4-2.4-5.1-3.2c-2.7-1.3-5.5-1.9-8.4-1.9c-1.3,0-2.7,0.1-4,0.4c-1.9,0.4-3.7,1-5.7,1.9c-0.4,0.2-0.7,0.3-1,0.5
	c-1.8,0.8-3.6,1.9-5.4,3c-1.3,0.9-2.6,1.8-3.6,2.5l-0.9,0.7c-1.7,1.3-3.6,2.8-5.9,4.7c-0.7,0.6-1.5,1.2-2.2,1.8
	c-2,1.7-4.1,3.5-6.2,5.2l-0.1,0.1L276.4,50.4z M122.6,49.7c-0.6-0.6-1.2-1.2-1.8-1.8c-1.6-1.5-3.2-3.1-4.7-4.6l-0.1-0.1l0.1-0.1
	c3.1-3.1,6.1-5.6,9.2-7.6c0.2-0.1,0.4-0.3,0.6-0.4l0.7-0.4c3-1.8,6.2-3.2,9.5-4.1c0.5-0.1,1-0.2,1.5-0.3c1.7-0.4,3.3-0.6,4.9-0.7
	c0.5,0,1,0,1.5,0c1.1,0,2.1,0.1,3.2,0.2c0.4,0,0.8,0.1,1.1,0.2l0.3,0.1l-0.2,0.3c-0.5,0.7-0.9,1.3-1.3,2c-1.7,2.8-2.9,5.9-3.6,9.2
	l0,0.2l-0.2,0c-0.4,0-0.8,0-1.2,0c-0.3,0-0.6,0-0.9,0c-3,0.2-6.3,1.4-9.8,3.4c-0.1,0.1-0.7,0.4-0.8,0.5c-1.2,0.8-2.5,1.6-3.7,2.6
	c-1,0.7-2,1.5-3.1,2.5l-0.1,0.1L122.6,49.7z M74.8,48.9c-2.1-2-4.2-4.2-6.3-6.2l-0.2-0.2l0.2-0.1c1.4-1,2.7-2,4-3.1l0.8-0.6
	c1.2-0.9,2.3-1.8,3.4-2.8c1.1-0.9,2.3-1.9,3.4-2.8c1.5-1.2,2.9-2.2,4.3-3.3c0.2-0.2,0.4-0.3,0.6-0.4l0.3-0.2
	c2.7-1.9,5.2-3.5,7.8-4.8c0.2-0.1,0.4-0.2,0.5-0.3c0.2-0.1,0.3-0.1,0.4-0.2c0.1-0.1,0.2-0.1,0.3-0.2c5-2.4,10-3.6,14.8-3.7
	c0.3,0,0.5,0,0.8,0c4.5,0,9.2,0.9,13.5,2.5c4.4,1.7,8.3,4.1,11.7,7.2l0.3,0.2l-0.5,0.1c-3.2,1-6.4,2.5-9.6,4.5l-0.1,0.1l-0.1-0.1
	c-0.1-0.1-0.2-0.1-0.3-0.2l-0.2-0.1c-1.7-1.2-3.3-2.2-4.9-2.9c-2.4-1-4.9-1.6-7.6-1.6c-1.3,0-2.7,0.1-4.1,0.4
	c-1.6,0.3-3.1,0.8-4.7,1.4c-0.3,0.1-0.6,0.3-1,0.4c-2.9,1.2-5.8,3-9.6,5.6l-0.8,0.6c-1.2,0.9-2.5,1.8-3.7,2.7
	c-0.8,0.6-1.5,1.2-2.3,1.7c-3.3,2.5-6.7,5-10,7.5l-0.1,0.1L74.8,48.9z M220.4,48c-2.1-1.9-4.1-3.7-6.1-5.6l-0.1-0.1l0.1-0.1
	c2.6-3.1,5.6-5.6,9.1-7.6l0.2-0.1c0.2-0.1,0.5-0.3,0.7-0.4c3.3-1.8,6.8-2.9,10.5-3.5c0.5-0.1,1-0.2,1.5-0.2c1.3-0.1,2.4-0.2,3.4-0.2
	l0.2,0c2.3,0,4.8,0.3,7.3,0.8l0.3,0.1l-0.2,0.3c-2.2,3.1-3.8,6.6-4.7,10.4l0,0.2l-0.9,0c-0.3,0-0.7,0-1,0c-3,0.1-6,0.7-8.8,1.8
	l-0.1,0.1c-0.2,0.1-0.4,0.2-0.6,0.2c-2.4,1-4.6,2.4-6.5,4c-0.7,0.6-1.4,1.2-2,1.9l-0.1,0.1L220.4,48z M178.2,48.7
	c-2.6-2.3-5.2-4.5-7.7-6.5l-0.2-0.1l1.3-1.2c2.8-2.6,5.7-5.2,8.8-7.6c0,0,1.4-1.1,2-1.6l0.3-0.3c0.2-0.2,0.4-0.3,0.7-0.5
	c3.1-2.3,6-4.2,8.8-5.7c0.4-0.2,0.7-0.4,1.1-0.6c0.1,0,0.1-0.1,0.2-0.1c4.8-2.5,9.9-3.8,15.1-4c0.4,0,0.9,0,1.3,0
	c4.6,0,9.3,0.9,13.6,2.7c3.7,1.5,7.2,3.7,10.3,6.3l0.3,0.3l-0.4,0.1c-0.6,0.1-1.1,0.2-1.6,0.3c-3,0.7-5.9,1.8-8.7,3.3l-0.1,0.1
	l-0.1-0.1c-4.2-2.9-9.3-4.5-14.6-4.5c-0.7,0-1.3,0-2,0.1c-1.7,0.1-3.5,0.5-5.2,1c-0.4,0.1-0.8,0.2-1.2,0.4c-3.1,1-6.2,2.7-9.3,4.9
	c-0.3,0.2-0.6,0.4-0.9,0.7c-1.8,1.3-3.5,2.8-5.1,4.5c-2.4,2.5-4.6,5.2-6.5,8.1l-0.1,0.2L178.2,48.7z"/>
<path id="XMLID_3_" class="st1" d="M451.5,42.2c-1.9-1.4-4.3-1.6-6.6-1.4c-1.2,0.1-2.3,0.3-3.4,0.6c2,6,3.1,12.5,2,18.7
	c1.1,0.2,2.3,0.4,3.5,0.4c2.3,0,4.6-0.6,6.4-2c3.4-2.8,3.2-8.1,1.6-11.8C454.2,44.9,453.1,43.3,451.5,42.2z M433,56
	c0-3.3-0.9-6.5-2.1-9.5c-1.9,1.3-3.6,2.7-5.3,4.2c1.1,1.2,2.2,2.4,3.4,3.6c1.2,1.2,2.5,2.2,3.9,3.1C433,56.9,433,56.5,433,56z
	 M431.9,33.5c-2.3,1-4.4,2.3-6.4,3.6c-0.3,0.2-0.6,0.4-0.9,0.6c-2.2,1.6-4.3,3.4-6.3,5.3c1.7,1.5,3.3,3.1,4.8,4.8
	c0.6,0.6,1.2,1.3,1.8,1.9c1.8-1.6,3.7-3.1,5.6-4.4c0.3-0.2,0.6-0.4,0.9-0.6c0.9-0.6,1.9-1.2,2.9-1.7c1.9-1,3.8-1.8,5.8-2.4
	c0.2-0.1,0.5-0.1,0.7-0.2c0.1,0,0.2,0,0.3-0.1c2.3-0.6,4.9-1,7.3-0.5c4.3,0.8,7.1,4.5,8.2,8.6c0.5,2.2,0.6,4.5,0,6.7
	c-0.6,2.2-2,4-3.9,5.1c-2.8,1.6-6.2,1.8-9.4,1.1c-0.8,3.4-2.2,6.6-4.2,9.4c6.5,2.5,14.3,3.6,20.2-0.9c2.9-2.2,4.4-5.6,5-9.1
	c0.7-3.8,0.7-7.8,0.2-11.6c-0.8-7-4.2-14.5-11-17.4c-3.6-1.6-7.7-1.6-11.5-1.1c-2.4,0.3-4.8,1-7.1,1.8c-0.4,0.1-0.7,0.3-1.1,0.4
	C433.1,33,432.5,33.2,431.9,33.5z M405.5,71.7c1.8,0.4,3.6,0.6,5.4,0.7c5.5,0.1,11.2-1.6,15.6-5c-0.5-0.3-1-0.6-1.5-1
	c-1.6-1-3.1-2.1-4.6-3.3c-1.2-1-2.4-2-3.6-3c-0.4,0.3-0.9,0.6-1.3,0.9c-1.4,1-2.8,2-4.1,3c-2.8,2.1-5.6,4.1-8.4,6.2
	c-0.2,0.2-0.5,0.3-0.7,0.5C403.5,71.1,404.5,71.5,405.5,71.7z M417.8,33.8c-4-1.4-8.2-1.5-12.3-0.5c-0.1,0-0.2,0.1-0.3,0.1
	c1.5,0.9,2.9,1.8,4.3,2.7c2.8,1.9,5.4,4,7.9,6.2c1.9-1.9,4-3.7,6.2-5.3C421.9,35.7,420,34.6,417.8,33.8z M393.1,77.3
	c5.1,2.8,10.5,4.8,16.3,5.4c5.3,0.5,10.7-0.1,15.7-2.1c4.5-1.9,8.6-4.8,11.7-8.6c0.2-0.2,0.4-0.5,0.5-0.7c0.3-0.3,0.5-0.6,0.7-1
	c2-2.8,3.4-5.9,4.2-9.2c0.1-0.4,0.2-0.8,0.3-1.2c0.1-0.5,0.2-1,0.2-1.5c0.6-5.7-0.4-11.4-2.3-16.7c-3.1,0.9-6,2.4-8.7,4.2
	c1.5,3.7,2.6,7.7,2.2,11.7c0,0.1-0.1,0.3-0.1,0.4c-0.1,0.4-0.1,0.7-0.2,1.1c-0.8,3.2-2.7,6-5.2,8.2c-0.3,0.3-0.6,0.5-0.9,0.8
	c-2.3,1.8-5,3.2-7.6,4.1c-3.3,1.1-6.8,1.5-10.2,1.3c-1.7-0.1-3.4-0.4-5.1-0.8c-1.1-0.3-2.1-0.6-3.2-1
	C398.7,73.5,396,75.5,393.1,77.3z M393.5,39.1c2.1,1.1,4,2.3,5.9,3.7c3.5,2.6,6.7,5.6,9.9,8.6c0.2,0.2,0.4,0.4,0.6,0.6
	c1.5,1.5,3,2.9,4.5,4.4c0.9,0.8,1.7,1.6,2.6,2.4c0.3,0.2,0.5,0.5,0.8,0.7c1.4,1.2,2.7,2.4,4.2,3.5c1.3,1,2.7,2,4.1,2.9
	c0.5,0.3,0.9,0.6,1.4,0.8c0.5-0.4,0.9-0.8,1.4-1.2c2-2,3.3-4.3,3.9-6.9c-1.7-1.1-3.3-2.5-4.7-4c-1.1-1-2.1-2.1-3.1-3.3
	c-0.3-0.3-0.5-0.6-0.8-0.9c-0.6-0.7-1.3-1.4-1.9-2.1c-1.5-1.6-3-3.1-4.6-4.6c-0.3-0.2-0.5-0.5-0.8-0.7c-0.4-0.3-0.7-0.7-1.1-1
	c-3.6-3.1-7.5-5.9-11.7-8.2c-3.7,1.2-7.2,3.1-10.4,5.2C393.7,39,393.6,39,393.5,39.1z M380.2,53.3c2.3,2.4,4.5,4.8,6.7,7.3
	c1.1,1.2,2.1,2.5,3.2,3.7c0.2,0.3,0.5,0.5,0.7,0.8c0.1-0.1,0.1-0.1,0.2-0.1c3.4-2.1,6.6-4.4,9.8-6.8c1.6-1.2,3.2-2.5,4.8-3.8
	c1-0.8,1.9-1.6,2.9-2.3c-0.9-0.9-1.8-1.7-2.8-2.6c-4-3.7-8.3-7.2-13.2-9.6c-5,3.5-9.5,7.6-14.3,11.4
	C378.9,51.9,379.5,52.6,380.2,53.3z M370.4,44.2c2.5,2,4.8,4.2,7,6.4c2.5-2,4.9-4,7.3-6c2.1-1.8,4.3-3.6,6.6-5.2
	c0.4-0.3,0.7-0.5,1.1-0.8c3.3-2.3,6.7-4.2,10.4-5.5c0.3-0.1,0.7-0.2,1-0.3c1.3-0.4,2.6-0.7,4-0.9c4.1-0.6,8.2,0,12,1.7
	c1.7,0.8,3.3,1.7,4.7,2.9c2.6-1.8,5.4-3.3,8.3-4.5c-3.4-3.2-7.4-5.7-11.8-7.4c-8.8-3.3-18.6-2.7-27.1,1.3c-0.4,0.2-0.8,0.4-1.1,0.6
	c-0.8,0.4-1.6,0.9-2.4,1.4c-2.2,1.4-4.3,2.9-6.3,4.6c-0.3,0.3-0.6,0.5-0.9,0.8c-1.5,1.3-3,2.6-4.5,3.9c-1.9,1.7-3.7,3.4-5.7,5
	C372.2,42.8,371.4,43.5,370.4,44.2z M359.4,36.5c2.1,1.2,4.2,2.5,6.1,3.9c1.4,1,2.8,2,4.1,3.1c1.3-1,2.6-2.1,3.9-3.2
	c2.2-1.9,4.3-3.9,6.5-5.8c0.7-0.6,1.4-1.2,2.1-1.8c-0.9-0.3-1.8-0.6-2.7-0.9c-2-0.5-4-0.8-6-0.8c-3.3-0.1-6.8,0.6-9.8,2.1
	C362.1,34,360.7,35.1,359.4,36.5z M362.3,66.7c2,1.6,4.3,3,6.7,3.8c3.6,1.2,7.1,0.9,10.6-0.1c0-0.1-0.1-0.1-0.1-0.2
	c-1-1.2-2.1-2.4-3.1-3.6c-1.9-2.1-3.8-4.2-5.8-6.2c-0.6,0.6-1.2,1.1-1.8,1.6c-1.2,1-2.5,2-3.8,2.9C364.1,65.6,363.2,66.2,362.3,66.7
	z M354.3,46.8c-0.6,3.5-0.3,7.2,0.7,10.7c1.4-0.8,2.8-1.7,4-2.7c0.7-0.6,1.4-1.2,2.1-1.8c0.2-0.2,0.5-0.5,0.7-0.7
	C359.5,50.3,357,48.5,354.3,46.8z M357.1,39.3c-1.3,2-2.2,4.2-2.6,6.5c1.6,1,3.2,2.1,4.8,3.2c1.1,0.8,2.3,1.7,3.4,2.6
	c0.2,0.2,0.4,0.4,0.6,0.5c2.6,2.1,5,4.4,7.4,6.8c0.2,0.2,0.5,0.5,0.7,0.7c0.2,0.2,0.5,0.5,0.7,0.7c2,2,4,4.2,5.9,6.3
	c0.9,1.1,1.9,2.1,2.8,3.2c0.1,0.1,0.1,0.2,0.2,0.2c3.1-1.1,6-2.6,8.8-4.3c-0.3-0.4-0.6-0.8-0.9-1.1c-1.2-1.4-2.4-2.8-3.6-4.1
	c-2.6-2.9-5.2-5.8-8-8.5c-0.2-0.2-0.4-0.4-0.7-0.7c-1.6-1.6-3.3-3.2-5-4.6c-0.7-0.6-1.4-1.2-2.1-1.8c-0.3-0.2-0.5-0.4-0.8-0.6
	c-3.2-2.6-6.5-4.9-10.1-7C358.1,37.9,357.6,38.6,357.1,39.3z M352,71.8c2.7,2.7,5.8,5,9.3,6.7c4.8,2.4,10.3,4,15.7,3.6
	c5-0.3,9.7-2.3,14-4.8c0.2-0.1,0.3-0.2,0.5-0.3c0.2-0.1,0.4-0.3,0.6-0.4c2.9-1.7,5.6-3.7,8.3-5.7c0.3-0.2,0.6-0.4,0.9-0.7
	c1.2-0.9,2.4-1.8,3.7-2.7c2.4-1.8,4.8-3.5,7.2-5.3c1.2-0.9,2.5-1.8,3.7-2.7c0.1-0.1,0.2-0.2,0.3-0.2c-2.4-2.2-4.8-4.5-7.1-6.7
	c-1.2,1.1-2.4,2-3.7,3c-1.8,1.5-3.6,2.9-5.5,4.3c-2.7,2-5.6,4-8.5,5.8c-0.4,0.2-0.7,0.4-1.1,0.7c-0.3,0.1-0.5,0.3-0.8,0.5
	c-2.5,1.5-5.2,2.9-7.9,3.9c-0.4,0.2-0.9,0.3-1.3,0.4c-0.6,0.2-1.3,0.4-1.9,0.5c-3.8,0.9-7.6,0.6-11.2-0.9c-2.1-0.9-4-2.2-5.7-3.6
	c-1.4,0.8-2.7,1.5-4.1,2.2C355.6,70.3,353.8,71.1,352,71.8z M342.5,44.8c0.1-0.6,0.2-1.3,0.4-1.9c-0.2,0-0.4,0.1-0.6,0.1
	C342.3,43.6,342.4,44.2,342.5,44.8C342.5,44.8,342.5,44.8,342.5,44.8z M344.1,55.6c0.3,1.3,0.8,2.6,1.3,3.9c0.2,0.5,0.4,0.9,0.6,1.3
	c2.8-0.6,5.6-1.6,8.1-2.9c-1.1-3.6-1.5-7.4-0.9-11.2c0-0.2,0.1-0.4,0.1-0.6c0.1-0.3,0.1-0.6,0.2-1c0.7-3.1,2.2-6,4.2-8.4
	c0.2-0.3,0.5-0.6,0.7-0.8c1.7-1.8,3.7-3.3,6-4.3c3.3-1.5,6.9-1.9,10.5-1.7c1.9,0.1,3.7,0.5,5.5,1c0.9,0.3,1.8,0.5,2.7,0.9
	c2.8-2.3,5.8-4.5,9-6.2c-1.8-1.5-3.9-2.4-6.1-3c-3-0.9-6.1-1.6-9.3-1.9c-5.5-0.6-11.1-0.1-16.2,1.8c-4.8,1.9-8.9,5-11.8,9.2
	c-0.1,0.2-0.2,0.4-0.3,0.5c-0.2,0.3-0.4,0.6-0.6,0.9c-1.1,1.8-2,3.8-2.7,5.8c-0.4,1-0.6,1.9-0.9,2.9c-0.1,0.3-0.1,0.5-0.2,0.8
	c-0.4,1.5-0.6,3-0.7,4.6C343,50.2,343.4,52.9,344.1,55.6z M340.6,61.5c1.2,0,2.4-0.2,3.7-0.3c0.2,0,0.5-0.1,0.7-0.1
	c-0.3-0.6-0.5-1.2-0.7-1.7c-0.6-1.5-1-3-1.4-4.6c-0.1-0.7-0.3-1.3-0.4-2c-0.2,2-0.6,4-1.1,6C341.2,59.7,340.9,60.6,340.6,61.5z
	 M345.4,62c-1.7,0.3-3.4,0.5-5.1,0.5c-1.2,3.6-2.9,7.1-4.9,10.3c1.9,0.3,3.8,0.4,5.7,0.3c3.1-0.2,6.2-0.9,9.2-1.9
	c0.3-0.1,0.6-0.2,0.9-0.3c2.4-0.9,4.7-1.9,6.9-3c0.9-0.5,1.7-0.9,2.6-1.4c0.3-0.2,0.6-0.3,0.9-0.5c1.3-0.8,2.6-1.6,3.8-2.5
	c1.1-0.8,2.3-1.7,3.3-2.6c0.4-0.4,0.8-0.8,1.2-1.2c-2.3-2.4-4.7-4.6-7.2-6.8c-0.3,0.4-0.7,0.7-1.1,1c-0.8,0.7-1.5,1.4-2.4,2
	c-1.2,0.9-2.5,1.7-3.8,2.5c-0.3,0.2-0.6,0.3-0.9,0.5c-2.5,1.3-5.3,2.3-8,2.8C346.1,61.9,345.7,61.9,345.4,62z M322.5,51.3
	c0.9-0.8,1.8-1.6,2.7-2.3c1.7-1.3,3.5-2.4,5.4-3.3c0.3-0.2,0.6-0.3,0.9-0.4c1.2-0.6,2.4-1.1,3.6-1.5c1.9-0.7,3.9-1.2,6-1.5
	c0.3-0.1,0.7-0.1,1-0.1c0.3,0,0.7-0.1,1-0.1c0.5-1.8,1.1-3.5,1.8-5.2c0.5-1.2,1.1-2.4,1.7-3.5c-2,0-4.1,0-6.1,0.2
	c-0.3,0-0.7,0.1-1,0.1c-0.5,0.1-1,0.1-1.4,0.2c-3.6,0.6-7.2,1.6-10.5,3c-0.4,0.2-0.8,0.3-1.1,0.5c-4,1.8-7.6,4.2-10.9,7.1
	c1.8,1.7,3.5,3.4,5.2,5.1C321.3,50.1,321.9,50.7,322.5,51.3z M323.1,51.9c2.7,2.7,5.4,5.3,8,8.1c1.6-4.2,1.1-9-0.3-13.4
	C328.1,48,325.4,49.8,323.1,51.9z M318,31.8c-4.1-1.5-8.4-1.5-12.6-0.2c-0.9,0.3-1.8,0.6-2.7,1c1.6,1.3,3.2,2.7,4.7,4.1
	c2.5,2.3,4.9,4.6,7.4,7c1.2-1.1,2.4-2.2,3.8-3.1c2.1-1.6,4.5-3,6.9-4.2c-0.5-0.4-1-0.9-1.5-1.3C322.1,33.8,320.1,32.6,318,31.8z
	 M312.3,71.4c3.2-0.1,6.3-0.9,9.2-2.2c0.3-0.1,0.6-0.3,0.9-0.5c-0.4-0.3-0.8-0.7-1.2-1c-1.4-1.2-2.7-2.3-4-3.5
	c-0.8-0.7-1.6-1.4-2.4-2.2c-1.3,1.3-2.6,2.6-3.9,3.8c-1.8,1.7-3.6,3.3-5.5,4.8c0.5,0.1,1,0.2,1.5,0.3
	C308.7,71.3,310.5,71.4,312.3,71.4z M298.1,44.4c2.5,2.5,5,4.9,7.5,7.3c0.3,0.3,0.5,0.5,0.8,0.8c1.9,1.8,3.7,3.5,5.6,5.3
	c1,0.9,2,1.8,2.9,2.7c0.3,0.2,0.5,0.5,0.8,0.7c1.1,1,2.2,2.1,3.4,3.1c1.2,1.1,2.3,2.1,3.5,3.2c0.3,0.3,0.6,0.5,0.9,0.8
	c2.3-1.3,4.3-2.9,5.9-4.9c0.6-0.8,1-1.6,1.4-2.5c-1.6-1.5-3.3-3.1-4.9-4.7c-1.2-1.1-2.4-2.3-3.6-3.5c-0.2-0.2-0.4-0.4-0.6-0.6
	c-2.3-2.3-4.7-4.6-7-6.9c-0.2-0.2-0.5-0.5-0.7-0.7c-0.5-0.5-1-1-1.5-1.5c-3.5-3.4-7.1-6.8-10.8-10c-2.7,1.2-5.3,2.8-7.7,4.4
	c-0.5,0.4-1,0.7-1.5,1.1C294.3,40.6,296.2,42.5,298.1,44.4z M304.5,71.4c-0.3,0.2-0.6,0.5-0.9,0.7c-2.8,2.1-5.9,4-9,5.6
	c4.3,2.8,9.2,4.9,14.3,5.7c5,0.8,10.1,0.3,14.8-1.7c2.3-1,4.5-2.3,6.3-3.9c1.5-1.3,2.7-2.7,3.8-4.3c0.2-0.3,0.4-0.5,0.6-0.8
	c0.2-0.3,0.4-0.7,0.7-1c1.8-2.8,3.2-5.9,4.3-9.1c0.1-0.3,0.2-0.6,0.3-0.9c0.5-1.7,1-3.3,1.3-5c0.5-2.7,0.8-5.4,0.8-8.2
	c0-1.4-0.1-2.7-0.3-4c-0.1-0.4-0.1-0.8-0.2-1.2c-0.4,0.1-0.8,0.1-1.2,0.2c-2.9,0.5-5.6,1.5-8.2,2.7c1,3,1.5,6.1,1.4,9.3
	c-0.1,1.9-0.5,3.7-1.2,5.5c-0.1,0.3-0.2,0.5-0.3,0.8c-0.6,1.2-1.3,2.3-2.2,3.3c-1.4,1.7-3.2,3-5.1,4.1c-0.3,0.2-0.6,0.3-0.9,0.5
	c-0.8,0.4-1.7,0.8-2.5,1.1c-3.1,1.2-6.5,1.8-9.8,1.7C308.9,72.3,306.6,72.1,304.5,71.4z M287.2,61.1c1.1,0.9,2.1,1.7,3.3,2.5
	c2.2-1.8,4.4-3.7,6.6-5.4c1.7-1.3,3.4-2.6,5.1-3.9c0.8-0.6,1.6-1.2,2.4-1.8c-4.4-4.3-8.8-8.7-13-13.1c-4.9,3.7-9.5,7.9-14.3,11.7
	c0.8,0.9,1.6,1.8,2.4,2.6C282,56.2,284.5,58.8,287.2,61.1z M276.5,50.3c2.9-2.3,5.6-4.7,8.4-7c1.9-1.6,3.9-3.2,5.9-4.7
	c0.3-0.2,0.6-0.4,0.9-0.7c1.2-0.9,2.4-1.7,3.6-2.5c1.8-1.1,3.6-2.2,5.5-3.1c0.3-0.2,0.7-0.3,1-0.5c1.9-0.8,3.8-1.5,5.8-1.9
	c4.2-0.9,8.6-0.4,12.5,1.5c1.8,0.9,3.6,2,5.1,3.2c0.5,0.4,0.9,0.8,1.4,1.2c3.4-1.5,6.9-2.7,10.6-3.3c-2.9-3.6-6.6-6.4-10.8-8.4
	c-5.2-2.5-11-3.8-16.8-3.6c-5.8,0.3-11.1,2.5-16.2,5.1c-0.3,0.1-0.5,0.3-0.8,0.4c-0.1,0-0.1,0.1-0.2,0.1c-3.2,1.6-6.3,3.4-9.3,5.3
	c-0.3,0.2-0.7,0.4-1,0.6c-1.5,1-3,2-4.5,3c-2.4,1.7-4.6,3.4-6.9,5.2c-0.8,0.6-1.5,1.3-2.3,1.9C271.3,44.8,273.9,47.5,276.5,50.3z
	 M258.6,35.1c2,1.2,3.9,2.4,5.8,3.8c1.1,0.8,2.2,1.7,3.2,2.6c1.1-1,2.3-1.9,3.4-2.8c2.6-2.1,5.3-4,8-5.9c0.7-0.5,1.4-0.9,2-1.3
	c-2.5-1.3-5.4-2.1-8.3-2.1C267.4,29.2,262.3,31.4,258.6,35.1z M262.9,63.5c-0.8,0.5-1.5,1-2.3,1.5c1.8,2.1,4,3.8,6.5,5
	c3.2,1.5,6.6,1.9,10.1,1.2c0.7-0.2,1.4-0.4,2-0.6c-0.8-0.6-1.5-1.2-2.3-1.8c-3.2-2.7-6-5.8-8.9-8.8
	C266.4,61.2,264.6,62.4,262.9,63.5z M255.6,67.9c-1.9,1.1-4,2.1-6,2.8c2.6,3.4,6.1,6.1,9.9,7.9c9.8,4.7,21.2,3.8,31.1-0.3
	c0.7-0.3,1.3-0.6,2-0.9c0.3-0.2,0.7-0.3,1-0.5c3.4-1.7,6.6-3.7,9.7-6c0.3-0.2,0.6-0.4,0.9-0.7c0.2-0.2,0.4-0.3,0.7-0.5
	c2.2-1.7,4.3-3.6,6.3-5.5c1-1,2-2,3-3c-2.9-2.6-5.8-5.3-8.7-8.1c-0.3,0.2-0.5,0.4-0.8,0.6c-1,0.7-2,1.5-2.9,2.2
	c-1.9,1.5-3.8,2.9-5.7,4.4c-1.5,1.2-3,2.5-4.6,3.8c-0.4,0.3-0.7,0.6-1.1,0.9c-2.8,2.2-5.6,4.3-8.8,5.7c-0.4,0.2-0.9,0.4-1.3,0.5
	c-1.6,0.6-3.3,1-5.1,1.2c-6,0.5-11.7-2.5-15.4-7C258.4,66.3,257,67.1,255.6,67.9z M252.9,49.5c0.1,1.8,0.4,3.5,1,5.2
	c1.8-1.1,3.5-2.3,5.1-3.7c-1.9-1.6-3.8-3-5.9-4.3C252.9,47.7,252.9,48.6,252.9,49.5z M266.8,42.2c-2.8-2.4-5.7-4.5-8.9-6.3
	c-0.8,0.9-1.5,1.8-2.2,2.9c-1.3,2.1-2.2,4.4-2.6,6.9c2.1,1.2,4.1,2.7,6,4.2c0.2,0.2,0.4,0.3,0.6,0.5c0.3,0.2,0.5,0.5,0.8,0.7
	c2.7,2.3,5.2,4.9,7.7,7.4c0.3,0.3,0.5,0.5,0.8,0.8c1,1,1.9,2,2.9,3c2.7,2.8,5.6,5.4,8.6,7.8c2.5-1.1,4.9-2.6,7.1-4.2
	c0.6-0.4,1.2-0.9,1.8-1.4c-1.3-0.9-2.5-1.9-3.6-2.9c-3.4-3-6.4-6.4-9.4-9.8c-0.2-0.3-0.5-0.5-0.7-0.8c-1.6-1.8-3.2-3.5-4.9-5.2
	c-1-1-2-1.9-3.1-2.8C267.4,42.7,267.1,42.4,266.8,42.2z M242.1,43.3c0-0.2,0.1-0.4,0.1-0.7c-0.1,0-0.2,0-0.2,0
	C242,42.8,242.1,43,242.1,43.3z M248.1,31.2c-2.3,3.1-3.9,6.6-4.8,10.4c-0.1,0.3-0.1,0.7-0.2,1c-0.1,0.4-0.2,0.8-0.2,1.2
	c-0.8,5.2-0.3,10.5,1.2,15.5c2.9-0.9,5.7-2.3,8.3-3.8c0.1-0.1,0.3-0.2,0.4-0.3c-0.1-0.2-0.1-0.4-0.2-0.6c-0.7-2.3-1-4.7-0.9-7.1
	c0-0.5,0.1-1,0.2-1.5c0.1-0.4,0.1-0.7,0.2-1.1c0.7-3.6,2.5-7,4.9-9.7c0.2-0.2,0.4-0.5,0.7-0.7c1.7-1.8,3.7-3.3,5.9-4.4
	c5.8-2.9,12.9-2.6,18.4,0.5c3.1-2,6.2-3.8,9.4-5.5c-0.9-0.8-1.8-1.5-2.9-2.1c-2.4-1.5-5-2.7-7.8-3.5c-5.3-1.5-10.8-1.3-16,0.3
	c-2.8,0.9-5.5,2.1-8,3.6c-2.5,1.5-5,3.3-7,5.5c-0.4,0.4-0.8,0.9-1.2,1.3C248.5,30.7,248.3,30.9,248.1,31.2z M243.6,60.6
	c-1.6,0.4-3.2,0.6-4.7,0.4c-0.6,1.3-1.3,2.6-2,3.8c-0.8,1.5-1.7,2.9-2.7,4.2c2.2,0.8,4.4,1.4,6.7,1.6c2.4,0.3,4.8,0,7.2-0.7
	c0.3-0.1,0.6-0.2,0.9-0.3c0.1,0,0.1,0,0.2-0.1c2.5-0.9,4.9-2.2,7.2-3.5c0.9-0.5,1.8-1.1,2.7-1.6c0.3-0.2,0.6-0.3,0.8-0.5
	c1.2-0.8,2.4-1.5,3.5-2.3c1.3-0.9,2.6-1.8,3.9-2.8c-0.9-1-1.9-2-2.8-3c-1.5-1.5-3-3-4.7-4.4c-1.1,0.9-2.2,1.8-3.3,2.6
	c-0.7,0.5-1.5,1-2.2,1.5c-0.3,0.2-0.7,0.4-1.1,0.6c-1.8,1.1-3.7,2-5.7,2.9c-1,0.4-2,0.8-3.1,1.1C244.1,60.5,243.9,60.5,243.6,60.6z
	 M241.8,52.2c-0.3,1.7-0.8,3.3-1.4,4.9c-0.3,1-0.8,2-1.2,2.9c1.3,0,2.6-0.1,3.8-0.4c0,0,0.1,0,0.1,0C242.5,57.2,242,54.7,241.8,52.2
	z M231,57c1.8-3.8,2.1-8.3,0.6-12.2c-0.8,0.3-1.6,0.7-2.4,1.1c-2.2,1.2-4.1,2.7-5.9,4.4C225.9,52.5,228.5,54.7,231,57z M222.6,49.6
	c0.6-0.7,1.3-1.3,2-1.9c1.9-1.7,4.2-3,6.6-4c0.2-0.1,0.5-0.2,0.7-0.3c2.8-1.1,5.8-1.7,8.8-1.8c0.3,0,0.7,0,1,0c0.2,0,0.5,0,0.7,0
	c0.9-3.8,2.5-7.4,4.8-10.5c-2.4-0.5-4.8-0.8-7.3-0.8c-1.2,0-2.4,0.1-3.6,0.2c-0.5,0.1-1,0.1-1.5,0.2c-3.7,0.6-7.2,1.8-10.5,3.5
	c-0.3,0.2-0.6,0.4-0.9,0.5c-3.4,2-6.5,4.5-9,7.6c2,1.9,4.1,3.7,6.1,5.6C221.2,48.4,221.9,49,222.6,49.6z M207.3,68.9
	c2,0.3,4,0.2,6-0.1c3.9-0.6,7.8-2,11-4.3c-1.3-1-2.6-2-3.8-3c-1.4-1.1-2.8-2.2-4.1-3.3c-0.5,0.4-1,0.8-1.5,1.2
	c-1.3,1-2.5,2.1-3.8,3.1c-2.4,1.9-4.8,3.7-7.3,5.5c0.2,0.1,0.3,0.1,0.5,0.2C205.3,68.6,206.3,68.8,207.3,68.9z M216.3,31
	c-3.6-1.1-7.4-1.5-11.1-0.9c-1,0.1-2,0.4-2.9,0.6c1.4,1.4,2.9,2.8,4.3,4.2c2.3,2.2,4.6,4.4,6.9,6.5c1.2-1.5,2.6-2.9,4-4.1
	c1.5-1.3,3.1-2.4,4.8-3.4C220.4,32.7,218.4,31.7,216.3,31z M191.7,35.9c2.2,2,4.4,3.9,6.7,5.9c5.2,4.5,10.4,8.9,15.8,13.2
	c0.8,0.6,1.6,1.2,2.3,1.9c0.3,0.2,0.5,0.4,0.8,0.6c1.6,1.3,3.2,2.6,4.8,3.8c1.1,0.8,2.2,1.7,3.3,2.5c1.7-1.3,3.2-2.8,4.4-4.6
	c0.3-0.4,0.5-0.8,0.7-1.2c-1.5-1.2-2.9-2.5-4.4-3.7c-1.2-1-2.4-2.1-3.6-3.2c-0.2-0.2-0.5-0.4-0.7-0.6c-2.7-2.4-5.5-4.9-8.1-7.4
	c-0.3-0.3-0.6-0.5-0.9-0.8c-4-3.7-7.9-7.5-11.7-11.3c-2.5,0.8-4.9,2-7.2,3.4C193.1,34.9,192.4,35.4,191.7,35.9z M202.8,68.9
	c-2.8,2.1-5.8,4.2-8.8,6.1c3.8,2,7.8,3.4,12.1,4c9.8,1.5,20.3-1.6,26.6-9.5c0,0,0-0.1,0.1-0.1c0.2-0.2,0.3-0.4,0.5-0.7
	c1.4-1.9,2.6-3.9,3.7-6c0.3-0.6,0.6-1.3,0.9-1.9c0.1-0.3,0.3-0.6,0.4-0.9c0.7-1.6,1.3-3.2,1.9-4.8c0.8-2.6,1.3-5.4,1.4-8.1
	c0-1.5-0.1-3-0.4-4.5c-0.5,0-1,0.1-1.4,0.1c-2.5,0.2-4.9,0.8-7.1,1.8c0.8,2.2,1.1,4.5,1,6.8c-0.2,2.2-0.7,4.3-1.6,6.3
	c-0.2,0.4-0.3,0.7-0.5,1.1c-0.4,0.7-0.8,1.3-1.2,2c-1.1,1.5-2.4,2.8-3.8,3.9c-0.3,0.3-0.6,0.5-0.9,0.7c-1,0.7-2.1,1.3-3.2,1.9
	c-3.1,1.6-6.6,2.6-10.1,2.9c-1.9,0.2-3.9,0.2-5.7-0.2C205.1,69.7,203.9,69.4,202.8,68.9z M181.2,51.2c2.3,2.2,4.4,4.4,6.6,6.7
	c1.3,1.4,2.5,2.7,3.7,4.2c5.4-3.4,10.4-7.4,14.9-11.9c-5.3-4.4-10.5-8.9-15.6-13.5c-4.6,3.5-8.6,7.8-11.7,12.7
	C179.8,49.9,180.5,50.5,181.2,51.2z M170.6,42c2.7,2.1,5.2,4.3,7.7,6.5c1.9-2.9,4.1-5.7,6.5-8.2c1.6-1.6,3.3-3.1,5.1-4.5
	c0.3-0.2,0.6-0.5,0.9-0.7c2.9-2.1,6-3.8,9.4-4.9c0.4-0.1,0.8-0.3,1.2-0.4c1.7-0.5,3.5-0.8,5.2-1c5.7-0.5,11.9,1.1,16.7,4.5
	c2.8-1.5,5.7-2.7,8.8-3.4c0.6-0.1,1.1-0.2,1.7-0.3c-3.1-2.6-6.5-4.8-10.3-6.3c-4.7-1.9-9.8-2.9-14.8-2.7c-5.3,0.2-10.3,1.6-15,3.9
	c-0.1,0-0.1,0.1-0.2,0.1c-0.4,0.2-0.7,0.4-1.1,0.6c-3.1,1.7-6,3.6-8.8,5.7c-0.3,0.3-0.7,0.5-1,0.8c-0.7,0.5-1.4,1-2,1.6
	C177,36.1,173.8,39,170.6,42z M160.8,50.3C160.8,50.3,160.8,50.2,160.8,50.3c-1.9-1.4-4-2.6-6-3.8c-0.7,3-0.8,6.1-0.3,9.2
	c1.5-1,3-2.1,4.3-3.3C159.4,51.7,160.1,51,160.8,50.3z M175.5,29.5c-5.4-0.7-10.6,2-14.4,5.7c2,1.3,3.9,2.6,5.8,4c1,0.7,2,1.5,3,2.3
	c3.6-3.6,7.6-7,11.6-10.1C179.6,30.4,177.6,29.7,175.5,29.5z M161.6,49.3c0.3,0.2,0.6,0.4,0.9,0.5c3.1,2,6.2,4.2,9,6.6
	c0.2,0.2,0.5,0.4,0.7,0.5c0.5,0.4,0.9,0.8,1.4,1.2c2.1,1.8,4.1,3.8,5.9,5.9c0.9,1,1.7,2,2.5,3.1c2.4-1,4.7-2.3,6.9-3.6
	c0.5-0.3,1-0.6,1.6-1c-1.4-1.6-2.8-3.3-4.3-4.8c-2.5-2.6-5-5.1-7.7-7.6c-0.3-0.2-0.5-0.5-0.8-0.7c-2.6-2.3-5.3-4.6-8-6.7
	c-0.2-0.2-0.4-0.3-0.6-0.5c-2.8-2.2-5.8-4.3-8.8-6.3c-0.7,0.7-1.3,1.4-1.8,2.2c-1.6,2.2-2.8,4.6-3.5,7.1c1.6,1,3.3,1.9,4.9,2.9
	C160.5,48.6,161.1,48.9,161.6,49.3z M160.8,65.9c2.3,1.8,5,3,7.9,3.5c4.1,0.6,8.1-0.2,11.9-1.6c-0.9-1.2-1.9-2.3-2.9-3.4
	c-2-2.2-4.2-4.3-6.5-6.3c-0.6,0.5-1.2,1.1-1.8,1.6c-1.3,1.1-2.7,2.2-4.1,3.2C163.9,63.9,162.3,64.9,160.8,65.9z M159.8,66.4
	c-3.1,1.8-6.3,3.3-9.6,4.6c2.8,3.6,6.6,6.4,10.9,8.2c4.2,1.8,8.9,2.5,13.5,2.1c5.6-0.5,11-2.7,15.9-5.4c0.5-0.3,0.9-0.5,1.4-0.8
	c0.4-0.2,0.7-0.4,1.1-0.6c3.1-1.9,6-3.9,8.9-6c0.3-0.2,0.6-0.5,0.9-0.7c0.6-0.5,1.3-0.9,1.9-1.4c2.3-1.7,4.5-3.4,6.7-5.2
	c1.1-0.9,2.3-1.8,3.4-2.8c0.3-0.3,0.6-0.5,0.9-0.8c-2.8-2.3-5.6-4.6-8.4-6.9c0,0-0.1,0.1-0.1,0.1c-3.1,3-6.4,5.9-9.9,8.5
	c-1.7,1.2-3.3,2.4-5.1,3.5c-0.3,0.2-0.6,0.4-0.9,0.6c-1.2,0.8-2.4,1.5-3.6,2.2c-1.6,0.9-3.2,1.7-4.9,2.5c-0.4,0.2-0.9,0.4-1.4,0.6
	c-1.4,0.6-2.9,1-4.3,1.4C171.3,71.3,164.1,70.8,159.8,66.4z M142.5,44.6c0.1-0.9,0.2-1.7,0.4-2.6c-0.3,0-0.6,0-0.9,0
	C142.2,42.9,142.4,43.7,142.5,44.6z M143.1,48.9c0,2.6,0.4,5.1,1,7.6c0.3,1.1,0.7,2.2,1.1,3.3c2.9-0.8,5.7-2.1,8.3-3.6
	c-0.6-3.4-0.5-6.8,0.3-10.2c0-0.2,0.1-0.3,0.1-0.5c0.1-0.2,0.1-0.4,0.2-0.7c1-3.5,2.9-6.7,5.4-9.4c0.3-0.3,0.5-0.5,0.8-0.8
	c1.8-1.8,3.8-3.3,6-4.4c3.3-1.7,7-2.4,10.6-1.7c1.9,0.4,3.8,1.1,5.5,2c2.8-2.1,5.8-4.1,8.8-5.8c-4.9-3.2-10.8-4.4-16.6-4.3
	c-3,0-6.1,0.3-9,0.8c-2.7,0.4-5.4,1.1-7.9,2.2c-3.2,1.4-5.8,3.5-8,6c-0.2,0.3-0.4,0.6-0.7,0.9c-1,1.3-1.8,2.6-2.6,4
	c-1.2,2.2-2,4.6-2.6,7.1c-0.1,0.2-0.1,0.4-0.1,0.6C143.4,44.3,143.1,46.6,143.1,48.9z M144.3,60c-0.5-1.4-0.9-2.8-1.2-4.3
	c-0.2-1-0.4-1.9-0.5-2.9c-0.1,1.2-0.3,2.3-0.6,3.4c-0.3,1.5-0.8,2.9-1.3,4.3c1,0,1.9-0.2,2.9-0.4C143.8,60.1,144.1,60.1,144.3,60z
	 M144.8,61.2c-1.5,0.4-3,0.6-4.6,0.6c-1.6,3.6-3.8,6.9-6.4,9.8c2.1,0.6,4.4,0.8,6.6,0.6c2.7-0.1,5.4-0.7,8-1.5
	c0.4-0.1,0.9-0.3,1.3-0.4c3-1,5.9-2.4,8.6-3.9c0.3-0.2,0.6-0.4,0.9-0.6c0.3-0.2,0.6-0.3,0.8-0.5c2-1.2,4-2.5,5.9-3.9
	c1.2-0.9,2.3-1.8,3.4-2.8c0.4-0.3,0.8-0.7,1.2-1.1c-2.8-2.4-5.8-4.6-8.8-6.6c-0.2,0.2-0.4,0.4-0.5,0.6c-0.8,0.8-1.5,1.6-2.3,2.3
	c-1.3,1.2-2.7,2.2-4.2,3.2c-0.3,0.2-0.5,0.3-0.8,0.5c-1.7,1-3.4,1.9-5.3,2.6c-0.9,0.4-1.9,0.7-2.8,1C145.4,61,145.1,61.1,144.8,61.2
	z M129.6,56.5c1.2-3.3,1.5-7,0.8-10.4c-2.3,1.4-4.4,3.1-6.4,4.8c1,1,2,2,3,2.9C127.8,54.7,128.7,55.6,129.6,56.5z M125.3,35.6
	c-3.3,2.2-6.3,4.8-9.2,7.6c1.6,1.5,3.2,3,4.8,4.6c0.8,0.8,1.6,1.6,2.5,2.5c1-0.8,2-1.7,3.1-2.5c1.2-0.9,2.4-1.8,3.8-2.6
	c0.3-0.2,0.6-0.3,0.8-0.5c3.1-1.8,6.4-3.2,9.9-3.4c0.3,0,0.6,0,1,0c0.4,0,0.8,0,1.2,0c0.7-3.2,1.9-6.4,3.6-9.2
	c0.4-0.7,0.8-1.3,1.3-2c-0.4-0.1-0.8-0.1-1.1-0.2c-1.5-0.2-3.1-0.2-4.6-0.1c-1.6,0.1-3.2,0.3-4.8,0.7c-0.5,0.1-1,0.2-1.4,0.3
	c-3.3,0.9-6.5,2.3-9.4,4.1c-0.1,0.1-0.3,0.2-0.4,0.2C125.9,35.2,125.6,35.4,125.3,35.6z M112.8,70.3c-2.6,0.3-5.4,0.2-7.9-0.5
	c-3.2,2.7-6.6,5.2-10.3,7.3c2,0.8,4,1.6,6.1,2.1c3,0.8,6.1,1.3,9.3,1.3c8.1,0.1,16-3,21.9-8.4c0.3-0.3,0.6-0.6,0.9-0.9
	c1.1-1.1,2.1-2.2,3-3.4c1.4-1.9,2.6-4,3.5-6.1c0.2-0.4,0.3-0.8,0.5-1.1c2.3-5.8,2.8-12.3,1.4-18.5c-2.9,0.3-5.8,1.3-8.4,2.7
	c-0.5,0.3-1,0.5-1.4,0.8c0.5,2.3,0.6,4.6,0.3,6.9c-0.2,1.7-0.6,3.3-1.3,4.8c-0.1,0.4-0.3,0.7-0.4,1.1c-1.4,3-3.6,5.7-6.3,7.8
	c-0.3,0.2-0.5,0.4-0.8,0.6c-0.3,0.2-0.7,0.5-1.1,0.7C119,69,115.9,69.9,112.8,70.3z M114.7,43.3c-3.8-3.6-7.6-7.2-11.4-10.8
	c-2.8,1.2-5.5,2.8-8,4.5c-0.6,0.4-1.1,0.8-1.6,1.2c1.6,1.4,3.2,2.9,4.8,4.3c3,2.8,6.1,5.6,9.1,8.4c0.3,0.3,0.5,0.5,0.8,0.8
	c1.4,1.3,2.9,2.7,4.3,4c1,0.9,1.9,1.9,2.9,2.8c0.3,0.2,0.5,0.5,0.8,0.7c1.1,1.1,2.3,2.1,3.4,3.2c1.1,1,2.2,2.1,3.2,3.1
	c2.1-1.5,3.9-3.4,5.3-5.7c0.4-0.6,0.7-1.3,1-2c-1.3-1.2-2.5-2.5-3.7-3.8c-0.8-0.8-1.5-1.5-2.3-2.3c-0.2-0.2-0.4-0.4-0.7-0.7
	c-2.3-2.3-4.7-4.7-7.1-7C115.1,43.8,114.9,43.5,114.7,43.3z M118.1,31.5c-4.7-1.6-9.4-1-13.9,0.7c1.4,1.3,2.8,2.5,4.2,3.8
	c2.3,2.2,4.7,4.3,7,6.5c1.6-1.5,3.2-3,4.8-4.4c1.4-1.1,2.8-2.2,4.2-3.1c-0.2-0.2-0.5-0.4-0.7-0.5C122.1,33.3,120.2,32.2,118.1,31.5z
	 M115.5,59.8c-1.1,1.1-2.1,2.1-3.2,3.1c-2.1,2.1-4.3,4.1-6.5,6c2.6,0.4,5.2,0.6,7.9,0.2c3-0.5,5.8-1.5,8.3-3.2
	c0-0.1-0.1-0.1-0.1-0.2c-1.3-1.2-2.6-2.4-3.9-3.6C117.2,61.4,116.4,60.6,115.5,59.8z M77,50.8c1,1,2,2,3,3c2.4,2.3,4.9,4.6,7.6,6.7
	c1.2,1,2.4,1.9,3.7,2.8c2.9-1.7,5.7-3.7,8.4-5.8c1.6-1.2,3.1-2.5,4.6-3.8c0.8-0.7,1.6-1.5,2.5-2.2c-4.6-4.3-9.2-8.6-13.9-12.8
	c-2.7,1.9-5.2,4-7.8,6C82.3,46.8,79.7,48.8,77,50.8z M75.6,66.3c-2.7-2.4-5.3-4.9-7.9-7.5c-2.5,1.9-5.2,3.8-7.9,5.6
	c1.9,1.9,4.3,3.4,6.9,4.2c3.9,1.3,8,1.1,11.9,0.2C77.6,68,76.6,67.1,75.6,66.3z M80.3,33.3c-2.3,1.8-4.6,3.7-6.9,5.5
	c-1.6,1.3-3.2,2.6-4.8,3.7c2.5,2.4,5,4.9,7.5,7.4c3.3-2.5,6.7-5,10-7.5c2-1.5,4-3,6-4.5c0.3-0.2,0.5-0.4,0.8-0.6
	c3-2.2,6.2-4.2,9.6-5.6c0.3-0.1,0.6-0.3,1-0.4c1.5-0.6,3.1-1.1,4.8-1.4c4-0.8,8.1-0.5,11.8,1.2c1.8,0.8,3.4,1.8,5,2.9
	c0.2,0.1,0.3,0.2,0.4,0.3c3-1.9,6.2-3.4,9.5-4.5c0.1,0,0.1,0,0.2,0c-3.4-3.1-7.4-5.5-11.7-7.1c-4.5-1.7-9.4-2.6-14.3-2.5
	c-5.2,0.1-10.1,1.5-14.7,3.7c-0.2,0.1-0.4,0.2-0.7,0.3c-0.2,0.1-0.4,0.2-0.6,0.3c-2.7,1.4-5.3,3-7.7,4.8c-0.3,0.2-0.6,0.4-0.9,0.6
	C83.1,31.1,81.7,32.2,80.3,33.3z M58.8,34.1c2.3,1.7,4.5,3.6,6.6,5.5c0.8,0.7,1.6,1.5,2.4,2.2c0.7-0.5,1.5-1.1,2.2-1.6
	c1.3-1,2.7-2.1,4-3.1c2.7-2.1,5.3-4.3,8.1-6.4c0.5-0.4,1-0.8,1.5-1.1c-0.8-0.4-1.7-0.7-2.5-1c-1.9-0.6-3.9-0.9-5.9-0.9
	C69.2,27.5,63.1,30,58.8,34.1z M53.2,53.8c1-0.5,2-1.1,2.9-1.7c0.9-0.6,1.8-1.2,2.7-1.8c-1.9-1.7-3.9-3.3-6-4.8
	C52.5,48.2,52.8,51,53.2,53.8z M58.8,65c-2.8,1.7-5.7,3.2-8.8,4.3c3.3,3.6,7.2,6.5,11.5,8.8c2.5,1.4,5.1,2.6,7.9,3.3
	c2.9,0.8,5.8,0.9,8.8,0.6c4.9-0.6,9.7-2.4,14.1-4.8c0.3-0.2,0.7-0.4,1-0.5c0.2-0.1,0.3-0.2,0.5-0.3c3.5-2,6.8-4.4,9.9-6.9
	c0.3-0.2,0.6-0.5,0.8-0.7c0.7-0.6,1.4-1.2,2.1-1.8c2-1.8,3.9-3.6,5.8-5.4c0.8-0.8,1.6-1.6,2.4-2.3c-2.4-2.3-4.8-4.5-7.2-6.8
	c-0.2,0.2-0.4,0.4-0.6,0.6c-0.9,0.8-1.7,1.5-2.6,2.3c-1.7,1.5-3.5,2.9-5.4,4.3c-2.1,1.6-4.4,3.1-6.7,4.5c-0.4,0.2-0.8,0.5-1.2,0.7
	c-0.8,0.5-1.6,0.9-2.4,1.3c-2.4,1.2-5,2.3-7.6,3.2c-0.4,0.1-0.9,0.3-1.3,0.4c-1,0.3-1.9,0.5-2.9,0.7c-4,0.7-8.2,0.5-12-1.2
	C62.6,68.1,60.5,66.7,58.8,65z M53,44.2c1.9,1.3,3.7,2.6,5.4,4.1c0.5,0.4,1,0.9,1.5,1.3c0.2,0.2,0.5,0.4,0.7,0.6
	c2.5,2.3,4.9,4.7,7.3,7.1c0.3,0.3,0.6,0.5,0.8,0.8c0.7,0.7,1.4,1.4,2.1,2.1c2,2,4.1,3.9,6.2,5.8c1,0.8,2,1.6,3,2.4
	c3.5-1,6.9-2.6,9.9-4.3c0.1,0,0.1-0.1,0.2-0.1c-1.4-1-2.8-2.1-4.2-3.3c-3.5-2.9-6.7-6-9.8-9.2c-0.3-0.3-0.6-0.6-0.9-0.9
	c-1.3-1.3-2.6-2.7-3.9-4c-1.2-1.2-2.4-2.3-3.6-3.5c-0.3-0.2-0.5-0.5-0.8-0.7c-2.8-2.7-5.8-5.3-8.9-7.6c-0.4,0.4-0.8,0.9-1.2,1.3
	C55,38.5,53.6,41.2,53,44.2z M48.9,31c-0.4,0.4-0.7,0.9-1.1,1.4c-1.8,2.4-3.3,5-4.3,7.9c-0.1,0.4-0.3,0.7-0.4,1.1
	c-0.6,1.9-1.1,3.8-1.3,5.7c-0.4,2.6-0.4,5.3-0.1,8c0.1,1.1,0.4,2.2,0.6,3.3c2.9-0.7,5.8-1.9,8.4-3.2c0.5-0.3,1-0.5,1.6-0.8
	c-0.5-3.1-0.8-6.2-0.3-9.3c0.1-0.4,0.1-0.8,0.2-1.3c0,0,0-0.1,0-0.1c0.8-3.5,2.6-6.6,5.1-9.2c0.2-0.2,0.5-0.5,0.7-0.7
	c2.1-2.1,4.7-3.7,7.5-4.9c3.5-1.4,7.2-2.2,11-1.9c1.8,0.1,3.7,0.5,5.4,1.1c0.8,0.3,1.7,0.6,2.5,1c2.5-1.8,5-3.5,7.7-4.9
	c-4.9-3.4-10.9-4.9-16.9-4.9c-9.5,0-18.9,4-25.4,10.9C49.6,30.3,49.2,30.7,48.9,31z M29.5,53.5c0.4,1.9,1.5,3.4,3.3,4.2
	c1.9,0.9,4.1,1.2,6.1,1.1c0.8,0,1.6-0.1,2.3-0.3c-0.3-1.5-0.5-3-0.6-4.4c-0.2-3,0-6.1,0.6-9.1c0.3-1.3,0.6-2.5,1-3.8
	c-3.3-0.2-6.6,0.7-9.1,2.9C30.4,46.3,28.8,50,29.5,53.5z M35.6,59.6c-2-0.4-4.1-1-5.5-2.6c-1.3-1.4-1.8-3.4-1.8-5.3
	c0.1-3.8,2.3-7.3,5.4-9.4c2.6-1.7,5.8-2.4,8.9-2.2c1.3-3.4,3-6.5,5.4-9.3c-0.1,0-0.3-0.1-0.4-0.1c-6.9-1.4-14.5-0.3-20.3,3.8
	C24.5,36.4,22.4,39,21,42c-1.4,3.1-1.9,6.5-1.8,9.9c0.2,3.5,1.1,7.2,3.2,10.1c1.8,2.6,4.3,4.6,7.1,5.9c5.8,2.8,12.3,2.6,18.3,0.8
	c0.4-0.1,0.8-0.3,1.2-0.4c0.4-0.1,0.8-0.3,1.2-0.4c2.7-1,5.2-2.3,7.7-3.8c0.3-0.2,0.7-0.4,1-0.6c0.5-0.3,1-0.6,1.4-0.9
	c1.6-1.1,3.2-2.2,4.8-3.3c0.6-0.4,1.2-0.9,1.7-1.3c-2.4-2.4-4.8-4.8-7.3-7c-1.3,1-2.7,1.9-4.1,2.8c-0.7,0.4-1.4,0.8-2.1,1.2
	c-0.3,0.2-0.6,0.3-0.9,0.5c-1.2,0.6-2.4,1.2-3.6,1.7c-2.1,0.9-4.2,1.7-6.3,2.2c-0.4,0.1-0.8,0.2-1.1,0.2
	C39.6,59.9,37.6,60,35.6,59.6z M28.8,32.1c6.1-3.4,13.4-4.1,20.1-2.4C52.3,26,56.6,23,61.3,21c10.1-4.4,22.8-4.3,31.8,2.4
	c1.1-0.6,2.2-1.1,3.3-1.5c4.8-1.9,9.8-2.8,14.9-2.6c9.3,0.3,18.3,4,25.2,10.3c2.2-0.6,4.5-0.9,6.8-0.9c1.4,0,2.9,0.1,4.3,0.3
	c0.4,0.1,0.8,0.1,1.1,0.2c1-1.2,2-2.4,3.2-3.4c2.1-1.8,4.6-3.1,7.3-4.1c2.7-0.9,5.6-1.5,8.4-1.9c3.2-0.4,6.4-0.7,9.6-0.5
	c5.4,0.3,10.9,1.7,15.3,4.9c0.9-0.5,1.9-1,2.8-1.4c4.9-2.2,10.2-3.2,15.5-3.1c9,0.2,17.7,3.8,24.4,9.8c4.2-0.6,8.5-0.4,12.6,0.7
	c0.9-1.1,1.8-2.1,2.9-3.1c2.3-2.1,4.9-3.8,7.6-5.3c2.6-1.4,5.5-2.6,8.4-3.3c5.4-1.3,11-1,16.2,0.8c2.5,0.9,4.9,2.1,7.1,3.6
	c0.9,0.6,1.7,1.2,2.5,1.9c0.7-0.3,1.3-0.7,2-1c2.7-1.3,5.5-2.5,8.4-3.3c3-0.9,6.1-1.2,9.2-1.1c10,0.3,20.4,4.9,26.5,13
	c2.9-0.4,5.8-0.4,8.6-0.1c0.6-0.9,1.2-1.9,1.9-2.8c3.3-4.1,7.9-7,12.8-8.6c5.6-1.8,11.5-2,17.2-1.1c2.9,0.4,5.7,1.1,8.4,2
	c2.1,0.8,4,1.8,5.6,3.3c4.6-2.3,9.7-3.5,14.8-3.7c9.6-0.3,19,3.4,25.9,10.1c0.2-0.1,0.4-0.1,0.5-0.2c7-2.5,15.7-3.5,22.1,1
	c6.5,4.6,8.8,12.7,9,20.2c0.1,3.9,0,8-1.3,11.7c-1.2,3.4-3.6,6.2-6.8,7.9c-3.3,1.7-7.1,2.2-10.7,1.8c-2.1-0.2-4.2-0.7-6.2-1.4
	c-0.8-0.3-1.6-0.5-2.4-0.8c-3.7,4.8-8.8,8.5-14.5,10.5c-5.3,1.9-11.1,2.2-16.6,1.4c-5.4-0.8-10.7-2.7-15.2-5.6
	c-5.4,3.2-11.2,5.5-17.7,5.2c-5.3-0.3-10.6-2.1-15.2-4.7c-2.9-1.7-5.6-3.8-8-6.3c-0.8,0.3-1.5,0.5-2.3,0.7
	c-4.5,1.3-9.3,1.7-13.9,0.8c-0.1,0.1-0.1,0.2-0.2,0.3c-3,4.3-7.3,7.5-12.3,9.2c-9.8,3.3-20.4,0.6-28.8-5c-6.9,3.3-14.4,5.2-22.1,4.6
	c-8.8-0.6-17.4-4.8-22.8-11.8c-0.2,0.1-0.5,0.2-0.7,0.2c-2.7,0.8-5.6,0.8-8.3,0.3c-2.1-0.4-4.1-1-6-1.7c-0.5,0.6-0.9,1.1-1.4,1.7
	c-3.4,3.7-7.9,6.4-12.8,7.8c-9,2.6-18.4,0.7-26.5-3.7c-6.3,3.8-13,6.8-20.4,6.9c-9,0.2-18.1-3.8-23.5-11.1c-0.1,0-0.2,0.1-0.3,0.1
	c-5.1,1.7-10.7,2.4-15.9,0.9c-2.5,2.4-5.4,4.5-8.6,6c-5.1,2.4-10.8,3.5-16.3,3.1c-2.8-0.2-5.7-0.7-8.4-1.5c-2.1-0.6-4.2-1.3-6.1-2.3
	c-0.4,0.3-0.9,0.5-1.4,0.7c-5.1,2.6-10.7,4.7-16.5,4.8c-5.9,0.1-11.4-2.2-16.4-5.1c-3.9-2.3-7.4-5.1-10.4-8.5
	c-0.5,0.2-1,0.3-1.5,0.5c-7,1.9-14.7,1.4-20.9-2.7c-2.8-1.9-5.1-4.5-6.4-7.6c-1.5-3.3-2-7.1-1.8-10.8c0.2-3.5,1.3-7,3.2-10
	C23.2,36.1,25.8,33.8,28.8,32.1z"/>
</svg>
